<svg version="1.1" xmlns="http://www.w3.org/2000/svg" xmlns:xlink="http://www.w3.org/1999/xlink" x="0px" y="0px"
	 viewBox="0 0 463.652 305.924" style="enable-background:new 0 0 463.652 305.924;" xml:space="preserve">
<g>
	<linearGradient id="SVGID_1_" gradientUnits="userSpaceOnUse" x1="0.0017" y1="78.7589" x2="348.2216" y2="78.7589">
		<stop  offset="0" style="stop-color:#F4C63C"/>
		<stop  offset="1" style="stop-color:#F08B21"/>
	</linearGradient>
	<path style="fill:url(#SVGID_1_);" d="M348.222,145.324C205.352,54.164,0.002,34.544,0.002,34.544v-22.35c0,0,0.11,0.01,0.32,0.03
		c143.75,10.71,241.94,58.25,296.44,93.48c0.8,0.52,1.58,1.03,2.36,1.54c0.01,0,0.01,0.01,0.01,0.01
		c31.53,20.64,47.74,36.71,49.03,38.01C348.182,145.284,348.202,145.304,348.222,145.324z"/>
	<path style="fill:#F6EB4D;" d="M0,6.579v5.613c0,0,280.095,27.369,463.652,216.931v-3.054C463.652,226.069,296.83,18.937,0,6.579z"
		/>
	<path style="fill:#F87B0A;" d="M0,0.003c0,0,256.342-3.372,463.652,218.88v7.186c0,0-175.76-203.082-463.652-219.49V0.003z"/>
	<path style="fill:#E74905;" d="M463.652,229.124v76.8c0,0-29.48-86.98-115.43-160.6c-0.02-0.02-0.04-0.04-0.06-0.06
		c-24.75-21.19-54.18-41.27-88.93-57.85c-0.07-0.03-0.15-0.07-0.23-0.11c-4.82-2.29-9.74-4.52-14.77-6.68
		c3.02,1.24,23.58,9.81,52.53,25.08C343.392,130.314,411.792,172.324,463.652,229.124z"/>
</g>
</svg>
