<svg version="1.1" xmlns="http://www.w3.org/2000/svg" xmlns:xlink="http://www.w3.org/1999/xlink" x="0px" y="0px"
	 viewBox="0 0 463.66 210.445" style="enable-background:new 0 0 463.66 210.445;" xml:space="preserve">
<g>
	<path style="fill:#D1111F;" d="M463.66,57.145v138.61h-0.01c-0.09,0.02-0.17,0.05-0.26,0.07c-0.45,0.11-0.91,0.23-1.37,0.34
		c-0.72,0.18-1.46,0.36-2.22,0.54l-1.64,0.39h-0.01c-0.34,0.08-0.68,0.17-1.03,0.25c-0.35,0.08-0.7,0.16-1.06,0.24
		c-0.71,0.17-1.44,0.34-2.17,0.5h-0.01l-1.02,0.24c-0.19,0.05-0.39,0.09-0.59,0.13c-0.2,0.05-0.4,0.1-0.6,0.13
		c-0.18,0.05-0.36,0.09-0.54,0.12c-0.65,0.15-1.32,0.3-2,0.44c-0.22,0.05-0.45,0.1-0.67,0.14l-1.14,0.24
		c-0.39,0.08-0.78,0.16-1.17,0.24c-0.39,0.08-0.78,0.16-1.17,0.24c-0.82,0.17-1.65,0.34-2.49,0.51c-0.63,0.13-1.27,0.26-1.92,0.38
		c-1.29,0.25-2.6,0.5-3.94,0.75c-0.67,0.12-1.35,0.25-2.03,0.37l-1.28,0.23c-0.6,0.1-1.19,0.21-1.8,0.32
		c-0.6,0.1-1.21,0.2-1.83,0.31l-1.66,0.28c-0.41,0.07-0.83,0.14-1.24,0.21c-0.23,0.03-0.47,0.07-0.7,0.11
		c-0.18,0.03-0.37,0.06-0.55,0.09l-0.17,0.03l-0.06,0.01l-1.38,0.22c-1.84,0.29-3.71,0.58-5.61,0.86c0,0-0.01,0.01-0.02,0h-0.04
		c-0.97,0.14-1.93,0.28-2.9,0.42c-1.51,0.21-3.05,0.42-4.6,0.63l-2.9,0.36l-0.76,0.1l-0.33,0.04l-2.01,0.24l-0.27,0.04h-0.03
		l-2.85,0.35c-0.74,0.08-1.49,0.17-2.24,0.25c-0.33,0.04-0.66,0.08-1,0.11c-0.4,0.05-0.8,0.09-1.21,0.13
		c-0.13,0.02-0.27,0.03-0.4,0.04c-1.63,0.17-3.28,0.34-4.95,0.5c-0.53,0.05-1.06,0.11-1.6,0.15c-1.7,0.16-3.42,0.31-5.16,0.46
		c-1.46,0.12-2.93,0.24-4.41,0.35l-1.68,0.12c-0.27,0.02-0.54,0.04-0.81,0.06c-0.01,0-0.01,0-0.02,0c-0.96,0.07-1.94,0.14-2.91,0.2
		h-0.01c-11.65,0.76-24.06,1.21-37.17,1.21c-29.29,0-62.04-2.23-97.43-8.12c-0.99-0.17-1.98-0.33-2.96-0.51
		c-0.99-0.17-2.04-0.36-3.06-0.54l-0.5-0.09l-0.36-0.06c-0.93-0.18-1.86-0.35-2.79-0.53l-0.74-0.14c-0.82-0.16-1.64-0.31-2.45-0.48
		l-0.29-0.06c-0.94-0.18-1.87-0.36-2.8-0.57l-0.9-0.18c-0.81-0.17-1.61-0.34-2.41-0.51c-0.31-0.07-0.61-0.13-0.91-0.2
		c-0.88-0.19-1.76-0.38-2.64-0.58l-0.27-0.06l-2.32-0.53c-0.16-0.04-0.31-0.07-0.47-0.11c-1.22-0.29-2.45-0.58-3.67-0.87h-0.01
		l-1.92-0.46l-0.83-0.21h-0.01l-0.38-0.09h-0.07l-0.72-0.19l-0.31-0.08l-1.39-0.36l-0.63-0.17l-0.49-0.12l-1.87-0.49l-0.63-0.16
		l-1.08-0.29l-1.4-0.36l-0.58-0.16l-0.53-0.14l-0.43-0.12l-1.31-0.37l-0.57-0.16l-0.43-0.12l-0.11-0.03l-0.36-0.11l-1.51-0.42
		l-0.89-0.26l-0.6-0.17l-1.59-0.46l-0.61-0.18l-0.18-0.05l-0.42-0.13l-2.42-0.72l-0.64-0.2l-2.16-0.66l-0.55-0.17l-0.4-0.12
		l-0.47-0.15c-0.51-0.15-1.01-0.31-1.51-0.47h-0.01c-0.08-0.02-0.15-0.05-0.23-0.08l-0.67-0.21c-0.77-0.24-1.53-0.49-2.29-0.72
		l-0.22-0.07l-1.79-0.59l-1.71-0.57l-0.07-0.02c-0.42-0.14-0.84-0.28-1.25-0.42l-0.53-0.18l-0.55-0.19l-1.12-0.38l-2.44-0.84
		l-1.39-0.49l-1.02-0.37l-0.75-0.26l-1.67-0.6l-0.87-0.32l-1.55-0.57c-0.28-0.1-0.57-0.21-0.85-0.31c-1.11-0.41-2.21-0.82-3.31-1.24
		l-0.94-0.36l-0.94-0.36l-0.5-0.2l-1.13-0.44l-0.37-0.13l-0.79-0.31l-0.67-0.27l-1.55-0.61l-0.66-0.26l-1.01-0.4
		c-0.88-0.37-1.76-0.71-2.64-1.07l-0.68-0.28c-0.33-0.13-0.66-0.27-1-0.41c-0.76-0.31-1.53-0.63-2.28-0.95
		c-1.05-0.44-2.09-0.87-3.12-1.32l-0.2-0.08l-1.55-0.67l-2.9-1.26c-1.24-0.55-2.47-1.09-3.69-1.64l-1.34-0.62
		c-0.68-0.3-1.36-0.61-2.03-0.92l-0.01-0.01l-0.2-0.26l-0.01-0.01c-2.09-2.69-4.14-5.38-6.18-8.09
		c-6.63-8.82-12.96-17.85-18.71-27.3c-0.27-0.52-0.74-0.91-1.3-1.08v-1.45c0.13-0.05,0.28-0.08,0.42-0.08c0.01,0,0.01,0,0.02,0
		c0.44,0.04,0.89,0.17,1.29,0.36c4.37,1.53,8.78,2.97,13.11,4.6c18.3,6.89,36.34,14.44,54.91,20.63c3.35,1.11,6.72,2.19,10.09,3.22
		c0.04,0.01,0.09,0.03,0.13,0.04c0.01,0.01,0.01,0.01,0.02,0.01c20.96,6.36,42.35,10.86,64.39,12.15
		c25.36,1.48,50.19-1.29,74.51-8.6c31.86-9.57,60.32-25.59,86.43-45.93c21.13-16.46,39.49-35.71,56.39-56.42
		c0.46-0.58,0.76-1.35,1.57-1.6H463.66z"/>
	
		<linearGradient id="SVGID_1_" gradientUnits="userSpaceOnUse" x1="397.6407" y1="4634.6523" x2="-74.4789" y2="4786.4473" gradientTransform="matrix(1 0 0 -1 0 4823.4897)">
		<stop  offset="0" style="stop-color:#DCB32E"/>
		<stop  offset="1" style="stop-color:#E42E1E"/>
	</linearGradient>
	<path style="fill:url(#SVGID_1_);" d="M0.002,0C0.629,0.156,0.69,0.779,0.951,1.21c29.171,47.337,65.744,87.877,111.222,120.157
		c28.835,20.462,60.22,35.682,94.662,44.301c20.722,5.216,42.033,7.723,63.4,7.456c0.783,0,1.569,0,2.898,0
		c-3.484,1.318-7.064,2.364-10.709,3.13c-19.792,4.507-39.819,5.724-60.046,4.166c-42.388-3.261-80.79-17.872-116.175-40.862
		C57.095,120.642,32.025,97.216,9.53,70.94C6.32,67.194,3.176,63.4,0.002,59.622V0z"/>
	<path style="fill:#E2551F;" d="M463.65,96.115v99.63c-1.24,0.31-2.52,0.63-3.86,0.95l-1.63,0.4h-0.01
		c-0.69,0.16-1.38,0.32-2.09,0.49c-0.71,0.17-1.44,0.34-2.17,0.5h-0.01l-1.02,0.23c-0.19,0.04-0.39,0.09-0.59,0.14
		c-0.2,0.04-0.4,0.08-0.6,0.13c-0.18,0.05-0.36,0.09-0.54,0.12c-0.39,0.08-0.78,0.17-1.17,0.25l-1.51,0.32l-1.14,0.24
		c-0.39,0.08-0.77,0.16-1.16,0.25c-0.39,0.08-0.78,0.16-1.17,0.24c-3.29,0.67-6.75,1.34-10.39,2l-1.28,0.23l-3.62,0.63l-1.67,0.28
		l-1.93,0.33l-0.57,0.1l-0.15,0.02l-0.06,0.01l-1.38,0.22c-1.84,0.29-3.71,0.58-5.61,0.86c0,0-0.01,0.01-0.02,0h-0.04
		c-0.97,0.14-1.93,0.28-2.9,0.42c-1.51,0.21-3.05,0.42-4.6,0.63l-2.9,0.36l-0.76,0.1l-0.33,0.04l-2.03,0.25l-0.25,0.03h-0.03
		l-2.85,0.35c-0.74,0.08-1.49,0.17-2.24,0.25c-0.33,0.04-0.66,0.08-1,0.11c-0.4,0.05-0.8,0.09-1.21,0.13
		c-0.13,0.02-0.27,0.03-0.4,0.04c-1.63,0.17-3.28,0.34-4.95,0.5c-0.53,0.05-1.06,0.11-1.6,0.15c-1.7,0.16-3.42,0.31-5.16,0.46
		c-1.46,0.12-2.93,0.24-4.41,0.35l-1.68,0.12c-0.27,0.02-0.54,0.04-0.81,0.06c-0.01,0-0.01,0-0.02,0c-0.96,0.07-1.94,0.14-2.91,0.2
		h-0.01c-11.65,0.76-24.06,1.21-37.17,1.21c-29.29,0-62.04-2.23-97.43-8.12c-0.99-0.17-1.98-0.33-2.96-0.51
		c-0.99-0.17-2.04-0.36-3.06-0.54l-0.5-0.09l-0.36-0.06c-0.93-0.18-1.86-0.35-2.79-0.53l-0.74-0.14c-0.82-0.16-1.64-0.31-2.45-0.48
		l-0.29-0.06c-0.94-0.18-1.87-0.36-2.8-0.57l-0.9-0.18c-0.81-0.17-1.61-0.34-2.41-0.51c-0.31-0.07-0.61-0.13-0.91-0.2
		c-0.88-0.19-1.76-0.38-2.64-0.58l-0.23-0.07h-0.02l-0.21-0.04c-0.71-0.16-1.42-0.32-2.13-0.48c-0.16-0.04-0.31-0.07-0.47-0.11
		c-1.22-0.29-2.45-0.58-3.67-0.87h-0.01l-1.91-0.47l-0.84-0.2h-0.01l-0.37-0.1l-0.79-0.2l-1.71-0.42l-0.63-0.17l-0.49-0.12
		l-1.87-0.49l-0.63-0.16l-1.08-0.29l-1.4-0.36l-0.58-0.16l-0.53-0.14l-0.43-0.12l-1.31-0.37l-0.57-0.16l-0.43-0.12l-0.11-0.03
		l-0.36-0.1H195l-1.51-0.42l-0.87-0.26l-0.6-0.17l-1.61-0.46l-0.61-0.18l-0.58-0.18l-2.43-0.72l-0.64-0.2l-2.15-0.66l-0.55-0.17
		l-0.4-0.12l-0.48-0.15l-1.51-0.48h-0.01c-0.08-0.02-0.16-0.04-0.25-0.07l-0.65-0.22c-0.77-0.24-1.53-0.49-2.29-0.72l-0.22-0.07
		l-1.79-0.59l-1.71-0.57l-0.07-0.02c-0.42-0.14-0.84-0.28-1.25-0.42l-0.53-0.18l-0.55-0.19l-1.12-0.38l-2.44-0.84l-1.39-0.49
		l-1.02-0.37c-0.63-0.22-1.27-0.45-1.9-0.68c-0.17-0.06-0.34-0.12-0.52-0.18l-0.87-0.32l-1.55-0.57c-0.28-0.1-0.57-0.21-0.85-0.31
		c-1.11-0.41-2.21-0.82-3.31-1.24l-0.94-0.36l-0.94-0.36l-0.5-0.2l-1.13-0.44l-0.37-0.13l-0.79-0.31l-0.67-0.27l-1.55-0.61
		l-0.66-0.26l-1.01-0.4c-0.88-0.37-1.76-0.71-2.64-1.07l-0.68-0.28c-0.33-0.13-0.66-0.27-1-0.41c13.49,1.98,27.09,3.3,40.82,3.96
		l0.22,0.01l1.14,0.05l0.18,0.01l1.39,0.06c3.34,0.13,6.68,0.22,10.01,0.28c0.01,0,0.01,0,0.02,0c17.84,0.28,35.69-0.6,53.41-2.62
		c7.28-0.84,14.54-1.85,21.76-3.05c0.02,0,0.04-0.01,0.06-0.01c11.35-1.89,22.63-4.22,33.83-7.02
		c38.84-9.68,75.71-24.38,111.07-43.06C433.52,114.745,448.71,105.675,463.65,96.115z"/>
	<path style="fill:#E9BA01;" d="M463.66,143.765v51.99h-0.01c-0.09,0.02-0.17,0.05-0.26,0.07c-0.45,0.11-0.91,0.23-1.37,0.34
		c-0.72,0.18-1.46,0.36-2.22,0.54l-1.64,0.39h-0.01c-0.34,0.08-0.68,0.17-1.03,0.25c-0.35,0.08-0.7,0.16-1.06,0.24
		c-0.71,0.17-1.44,0.34-2.17,0.5h-0.01l-1.02,0.24c-0.19,0.05-0.39,0.09-0.59,0.13c-0.2,0.05-0.4,0.1-0.6,0.13
		c-0.18,0.05-0.36,0.09-0.54,0.12c-0.65,0.15-1.32,0.3-2,0.44c-0.22,0.05-0.45,0.1-0.67,0.14l-1.14,0.24
		c-0.39,0.08-0.78,0.16-1.17,0.24c-0.39,0.08-0.78,0.16-1.17,0.24c-0.82,0.17-1.65,0.34-2.49,0.51c-0.63,0.13-1.27,0.26-1.92,0.38
		c-1.29,0.25-2.6,0.5-3.94,0.75c-0.67,0.12-1.35,0.25-2.03,0.37l-1.28,0.23c-0.6,0.1-1.19,0.21-1.8,0.32
		c-0.6,0.1-1.21,0.2-1.83,0.31l-1.66,0.28c-0.41,0.07-0.83,0.14-1.24,0.21c-0.23,0.03-0.47,0.07-0.7,0.11
		c-0.18,0.03-0.37,0.06-0.55,0.09l-0.17,0.03l-0.06,0.01l-1.38,0.22c-1.84,0.29-3.71,0.58-5.61,0.86c0,0-0.01,0.01-0.02,0h-0.04
		c-0.97,0.14-1.93,0.28-2.9,0.42c-1.51,0.21-3.05,0.42-4.6,0.63l-2.9,0.36l-0.76,0.1l-0.33,0.04l-2.01,0.24l-0.27,0.04h-0.03
		l-2.85,0.35c-0.74,0.08-1.49,0.17-2.24,0.25c-0.33,0.04-0.66,0.08-1,0.11c-0.4,0.05-0.8,0.09-1.21,0.13
		c-0.13,0.02-0.27,0.03-0.4,0.04c-1.63,0.17-3.28,0.34-4.95,0.5c-0.53,0.05-1.06,0.11-1.6,0.15c-1.7,0.16-3.42,0.31-5.16,0.46
		c-1.46,0.12-2.93,0.24-4.41,0.35l-1.68,0.12c-0.27,0.02-0.54,0.04-0.81,0.06c-0.01,0-0.01,0-0.02,0c-0.96,0.07-1.94,0.14-2.91,0.2
		h-0.01c-11.65,0.76-24.06,1.21-37.17,1.21c-29.29,0-62.04-2.23-97.43-8.12c-0.99-0.17-1.98-0.33-2.96-0.51
		c-0.99-0.17-2.04-0.36-3.06-0.54l-0.5-0.09l-0.36-0.06c-0.93-0.18-1.86-0.35-2.79-0.53l-0.74-0.14c-0.82-0.16-1.64-0.31-2.45-0.48
		l-0.29-0.06c-0.94-0.18-1.87-0.36-2.8-0.57l-0.9-0.18c-0.81-0.17-1.61-0.34-2.41-0.51c-0.31-0.07-0.61-0.13-0.91-0.2
		c-0.88-0.19-1.76-0.38-2.64-0.58l-0.27-0.06l-2.32-0.53c-0.16-0.04-0.31-0.07-0.47-0.11c-1.22-0.29-2.45-0.58-3.67-0.87h-0.01
		l-1.92-0.46l-0.83-0.21h-0.01l-0.38-0.09h-0.07l-0.72-0.19l-0.31-0.08l-1.39-0.36l-0.63-0.17l-0.49-0.12l-1.87-0.49l-0.63-0.16
		l-1.08-0.29l-1.4-0.36l-0.58-0.16l-0.53-0.14l-0.43-0.12l-1.31-0.37l-0.57-0.16l-0.43-0.12l-0.11-0.03l-0.36-0.11l-1.51-0.42
		l-0.89-0.26l-0.6-0.17l-1.59-0.46l-0.61-0.18l-0.18-0.05l-0.42-0.13l-2.42-0.72l-0.64-0.2l-2.16-0.66l-0.55-0.17l-0.4-0.12
		l-0.47-0.15c-0.51-0.15-1.01-0.31-1.51-0.47h-0.01c-0.08-0.02-0.15-0.05-0.23-0.08l-0.67-0.21c-0.77-0.24-1.53-0.49-2.29-0.72
		l-0.22-0.07l-1.79-0.59l-1.71-0.57l-0.07-0.02c-0.42-0.14-0.84-0.28-1.25-0.42l-0.53-0.18l-0.55-0.19l-1.12-0.38l-2.44-0.84
		l-1.39-0.49l-1.02-0.37l-0.75-0.26l-1.67-0.6l-0.87-0.32l-1.55-0.57c-0.28-0.1-0.57-0.21-0.85-0.31c-1.11-0.41-2.21-0.82-3.31-1.24
		l-0.94-0.36l-0.94-0.36l-0.5-0.2l-1.13-0.44l-0.37-0.13l-0.79-0.31l-0.67-0.27l-1.55-0.61l-0.66-0.26l-1.01-0.4
		c-0.88-0.37-1.76-0.71-2.64-1.07l-0.68-0.28c-0.33-0.13-0.66-0.27-1-0.41c-0.76-0.31-1.53-0.63-2.28-0.95
		c-1.05-0.44-2.09-0.87-3.12-1.32l-0.2-0.08l-1.55-0.67l-2.9-1.26c-1.24-0.55-2.47-1.09-3.69-1.64l-1.34-0.62
		c-0.68-0.3-1.36-0.61-2.03-0.92l-0.01-0.01l-0.34-0.15l-0.07-0.03l-0.62-0.29l-0.06-0.03l0.88,0.23
		c17.25,4.5,34.74,8.09,52.39,10.72c0.1,0.02,0.2,0.04,0.3,0.05c0.15,0.03,0.3,0.05,0.45,0.07c2.13,0.31,4.27,0.62,6.41,0.91
		c0.05,0.01,0.09,0.01,0.14,0.02c5.19,0.71,10.41,1.33,15.65,1.86c0.02,0.01,0.04,0.01,0.06,0.01c0.55,0.06,1.09,0.12,1.65,0.17
		l0.33,0.03c0.03,0,0.07,0.01,0.1,0.01c10.43,1.05,20.94,1.79,31.55,2.23c25.86,1.07,51.64,0,77.37-2.75
		c18.9-2.03,37.65-5,56.25-8.91c31.43-6.63,62.32-15.62,92.41-26.89c0.64-0.24,1.26-0.76,2.03-0.46L463.66,143.765z"/>
	
		<linearGradient id="SVGID_00000082351825048507265570000011945898573526172595_" gradientUnits="userSpaceOnUse" x1="399.4575" y1="118.5697" x2="42.5353" y2="118.5697">
		<stop  offset="0" style="stop-color:#E2561E"/>
		<stop  offset="1" style="stop-color:#DCB32E"/>
	</linearGradient>
	<path style="fill:url(#SVGID_00000082351825048507265570000011945898573526172595_);" d="M375.21,209.235
		c-11.65,0.76-24.06,1.21-37.17,1.21c-29.29,0-62.04-2.23-97.43-8.12c-0.99-0.17-1.98-0.33-2.96-0.51
		c-0.99-0.17-2.04-0.36-3.06-0.54l-0.5-0.09l-0.36-0.06c-0.93-0.18-1.86-0.35-2.79-0.53l-0.74-0.14c-0.82-0.16-1.64-0.31-2.45-0.48
		l-0.29-0.06c-0.94-0.18-1.87-0.36-2.8-0.57l-0.9-0.18c-0.81-0.17-1.61-0.34-2.41-0.51c-0.31-0.07-0.61-0.13-0.91-0.2
		c-0.88-0.19-1.76-0.38-2.64-0.58l-0.23-0.07h-0.02l-0.21-0.04c-0.71-0.16-1.42-0.32-2.13-0.48c-0.16-0.04-0.31-0.07-0.47-0.11
		c-1.22-0.29-2.45-0.58-3.67-0.87h-0.01l-1.91-0.47l-0.84-0.2h-0.01l-0.37-0.1h-0.07l-0.73-0.18l-0.31-0.08l-2.03-0.51l-0.49-0.13
		l-1.87-0.48l-0.63-0.17l-1.08-0.28l-1.4-0.37l-0.58-0.15l-0.53-0.15l-0.43-0.12l-1.3-0.38l-0.57-0.16l-0.43-0.12l-0.11-0.03
		l-0.36-0.1H195l-1.5-0.43l-0.88-0.25l-0.6-0.17l-1.6-0.47l-0.61-0.18l-0.18-0.05l-0.41-0.12l-2.43-0.72l-0.64-0.2l-2.15-0.66
		l-0.55-0.17l-0.4-0.12l-0.48-0.15l-1.51-0.48h-0.01c-0.08-0.02-0.15-0.05-0.23-0.08l-0.67-0.21c-0.77-0.24-1.53-0.49-2.29-0.72
		l-0.22-0.07l-1.79-0.59l-1.71-0.57l-0.07-0.02c-0.42-0.14-0.84-0.28-1.25-0.42l-0.53-0.18l-0.55-0.19l-1.12-0.38l-2.44-0.84
		l-1.39-0.49l-1.02-0.37l-0.75-0.26l-1.15-0.42c-0.17-0.06-0.34-0.12-0.52-0.18l-0.87-0.32l-1.55-0.57
		c-0.28-0.1-0.57-0.21-0.85-0.31c-1.11-0.41-2.21-0.82-3.31-1.24l-0.94-0.36l-0.94-0.36l-0.5-0.2l-1.13-0.44l-0.37-0.13l-0.79-0.31
		l-0.67-0.27l-1.55-0.61l-0.66-0.26l-1.01-0.4c-0.88-0.37-1.76-0.71-2.64-1.07l-0.68-0.28c-0.33-0.13-0.66-0.27-1-0.41
		c-0.76-0.31-1.53-0.63-2.28-0.95c-1.05-0.44-2.09-0.87-3.12-1.32l-0.2-0.08l-1.55-0.67l-2.9-1.26c-1.24-0.55-2.47-1.09-3.69-1.64
		l-1.34-0.62c-0.68-0.3-1.36-0.61-2.03-0.92l-0.01-0.01l-0.34-0.15l-0.07-0.03l-0.62-0.29l-0.06-0.03
		C48.46,130.865,1.38,85.035,0,83.685v-56.99c0.59,0.08,0.68,0.64,0.92,1.01c16.86,26.13,37.39,49.1,60.5,69.82
		c12.47,11.18,25.62,21.59,39.37,31.15c0.01,0,0.01,0.01,0.02,0.01c29.24,20.35,60.91,36.68,94.77,49.33l2.09,0.78l0.03,0.01
		c1.4,0.51,2.8,1.01,4.2,1.51c0.02,0.01,0.05,0.02,0.07,0.03c0.05,0.02,0.08,0.03,0.12,0.04l0.01,0.01c0.02,0,0.03,0.01,0.04,0.01
		c52.38,18.64,106.6,27.31,162.16,28.66C367.94,209.155,371.57,209.205,375.21,209.235z"/>
	
		<linearGradient id="SVGID_00000081609691313365406300000013566679505880744890_" gradientUnits="userSpaceOnUse" x1="339.9747" y1="146.6586" x2="448.2696" y2="212.179">
		<stop  offset="0" style="stop-color:#E2561E"/>
		<stop  offset="1" style="stop-color:#DCB32E"/>
	</linearGradient>
	<path style="fill:url(#SVGID_00000081609691313365406300000013566679505880744890_);" d="M463.66,182.165v13.59h-0.01
		c-0.09,0.02-0.17,0.05-0.26,0.07c-0.45,0.11-0.91,0.23-1.37,0.34c-0.72,0.18-1.46,0.36-2.22,0.54c-0.87,0.22-1.77,0.43-2.68,0.64
		c-1.37,0.33-2.79,0.66-4.26,0.98c-0.19,0.05-0.39,0.09-0.59,0.13c-0.2,0.05-0.4,0.1-0.6,0.13c-0.18,0.05-0.36,0.09-0.54,0.12
		c-0.66,0.15-1.32,0.3-2,0.44c-0.22,0.05-0.45,0.1-0.67,0.14c-1.92,0.42-3.91,0.83-5.97,1.23c-0.63,0.13-1.27,0.26-1.92,0.38
		c-1.29,0.25-2.6,0.5-3.94,0.75c-1.66,0.31-3.37,0.62-5.11,0.92c-1.54,0.27-3.12,0.54-4.73,0.8c-0.42,0.07-0.84,0.14-1.27,0.21
		c-2.34,0.38-4.74,0.75-7.2,1.11c0,0-0.01,0.01-0.02,0c-0.918,0.135-1.859,0.266-2.793,0.399c-0.049,0.007-0.098,0.014-0.147,0.021
		c-0.017,0.002-0.035,0.005-0.052,0.007c-1.349,0.19-2.715,0.377-4.097,0.561c-0.151,0.021-0.299,0.041-0.45,0.062l-0.17,0.021
		c-2.667,0.351-5.397,0.689-8.188,1.012l-0.791,0.097c-0.74,0.08-1.49,0.17-2.24,0.25c-0.33,0.04-0.66,0.08-1,0.11
		c-0.4,0.05-0.8,0.09-1.21,0.13c-0.13,0.02-0.27,0.03-0.4,0.04c-1.63,0.18-3.28,0.34-4.95,0.5c-0.53,0.05-1.06,0.11-1.6,0.15
		c-1.7,0.16-3.42,0.32-5.16,0.46c-1.46,0.12-2.93,0.24-4.41,0.35c-0.85,0.07-1.7,0.13-2.55,0.19c0.01,0,0.03-0.01,0.04-0.01
		s0.01,0,0.02,0c29.15-6.75,57.73-15.74,85.5-26.87H463.66z"/>
</g>
</svg>
