<svg version="1.1" xmlns="http://www.w3.org/2000/svg" xmlns:xlink="http://www.w3.org/1999/xlink" x="0px" y="0px"
	 viewBox="0 0 463.652 148.35" style="enable-background:new 0 0 463.652 148.35;" xml:space="preserve">
<g>
	<linearGradient id="SVGID_1_" gradientUnits="userSpaceOnUse" x1="171.7503" y1="76.5237" x2="463.6523" y2="76.5237">
		<stop  offset="0" style="stop-color:#B52D05"/>
		<stop  offset="1" style="stop-color:#730504"/>
	</linearGradient>
	<path style="fill:url(#SVGID_1_);" d="M463.652,39.039c0,0-120.152,93.277-291.902,54.385c0,0,116.361,60.862,291.902-26.716
		V39.039z"/>
	<path style="fill:#AD0F08;" d="M463.652,66.708v40.454c0,0-163.249,46.527-309.92-12.348
		C153.732,94.815,301.539,144.989,463.652,66.708z"/>
	<path style="fill:#F89D08;" d="M463.652,107.16v13.51c0,0-9.38,2.53-26.11,5.34c-0.25,0.04-0.98,0.16-2.17,0.35
		c-30.62,4.99-83.84,10.53-148.5,4.26c-0.06,0-0.13-0.01-0.19-0.02c-0.11-0.01-0.24-0.02-0.41-0.04
		c-0.616-0.059-1.671-0.165-3.132-0.331c-23.566-2.429-48.586-6.432-74.568-12.619c-0.01,0-0.03-0.01-0.04-0.01
		c-66.32-15.79-138.78-45.72-208.53-99.56V0c0,0,63.29,57.85,171.79,93.43c17.76,5.83,36.73,11.06,56.84,15.35
		c6.44,1.37,13.01,2.64,19.68,3.81c62.51,10.92,134.99,12.28,215.3-5.42C463.622,107.17,463.642,107.16,463.652,107.16z"/>
	<path style="fill:#B14116;" d="M0,46.269c0,0,137.073,95.369,286.909,84.352c0,0-142.135-11.703-286.909-112.584V46.269z"/>
	
		<linearGradient id="SVGID_00000062171830372775531610000000145750269705195921_" gradientUnits="userSpaceOnUse" x1="0.0017" y1="97.3101" x2="437.5416" y2="97.3101">
		<stop  offset="0" style="stop-color:#E94B05"/>
		<stop  offset="1" style="stop-color:#730504"/>
	</linearGradient>
	<path style="fill:url(#SVGID_00000062171830372775531610000000145750269705195921_);" d="M437.542,126.01
		c-57.03,16.33-114.31,22.34-167.76,22.34c-149.94,0-269.78-47.34-269.78-47.34V46.27c73.62,37.62,145.26,59.27,208.53,71.33
		c0.01,0,0.03,0.01,0.04,0.01c11.28,2.15,22.29,4,33,5.58c0.01,0,0.03,0,0.04,0.01c104.28,15.36,179.95,5.27,193.76,3.16
		C436.562,126.17,437.292,126.05,437.542,126.01z"/>
</g>
</svg>
