<svg version="1.1" xmlns="http://www.w3.org/2000/svg" xmlns:xlink="http://www.w3.org/1999/xlink" x="0px" y="0px"
	 viewBox="0 0 463.653 94.086" style="enable-background:new 0 0 463.653 94.086;" xml:space="preserve">
<g>
	<path style="fill:#C83A0F;" d="M463.609,22.581c-2.438,0.909-97.018,42.447-251.434,39.649C124.748,60.647,47.687,28.88,0,2.166V0
		C0,0,180.98,110.219,463.609,22.581z"/>
	<path style="fill:#F87B0A;" d="M0,2.166v13.779c0,0,188.707,119.801,463.609,6.636C463.609,22.581,214.233,119.679,0,2.166z"/>
	<path style="fill:#A20B07;" d="M0,28.277c0,0,173.51,117.575,463.651,0v-3.905c0,0-236.559,110.241-463.651-8.426V28.277z"/>
	<linearGradient id="SVGID_1_" gradientUnits="userSpaceOnUse" x1="0.0033" y1="58.3359" x2="463.6532" y2="58.3359">
		<stop  offset="0" style="stop-color:#F87B0A"/>
		<stop  offset="0.2125" style="stop-color:#E35F0C"/>
		<stop  offset="0.5599" style="stop-color:#C53610"/>
		<stop  offset="0.8345" style="stop-color:#B21C12"/>
		<stop  offset="1" style="stop-color:#AB1313"/>
	</linearGradient>
	<path style="fill:url(#SVGID_1_);" d="M463.653,28.276c-111.59,50.97-210.88,65.81-288.67,65.81
		c-108.36,0-174.98-28.79-174.98-28.79v-37.02c0.04,0.03,0.09,0.05,0.13,0.08c58.63,34.39,132.52,44.16,203.97,42.29h0.07
		c1.51-0.04,3-0.09,4.51-0.14c52.99-1.75,104.43-9.79,147.05-18.79c0.03-0.01,0.06-0.02,0.09-0.02c16.36-3.46,31.42-7.06,44.77-10.5
		c0.1-0.03,0.21-0.06,0.31-0.08c35.8-9.24,59.24-17.31,62.36-18.4c0.01-0.01,0.03-0.01,0.04-0.01c0.01-0.01,0.02-0.02,0.03-0.01
		c0.02-0.02,0.04-0.02,0.06-0.03c0.02-0.01,0.03-0.02,0.05-0.01l0.01-0.01c0.02-0.01,0.03-0.02,0.04-0.02
		c0.01-0.01,0.01-0.01,0.01-0.01c0.01,0.01,0.02,0,0.02,0c0.01,0,0.02,0,0.02,0c0.01-0.01,0.01-0.01,0.01-0.01
		c0.01,0,0.02-0.01,0.03-0.01c0.02-0.01,0.03-0.01,0.03-0.01l0.01,1.8L463.653,28.276z"/>
</g>
</svg>
