<svg version="1.1" xmlns="http://www.w3.org/2000/svg" xmlns:xlink="http://www.w3.org/1999/xlink" x="0px" y="0px"
	 viewBox="0 0 463.65 141.01" style="enable-background:new 0 0 463.65 141.01;" xml:space="preserve">
<g>
	<linearGradient id="SVGID_1_" gradientUnits="userSpaceOnUse" x1="0" y1="62.4013" x2="463.65" y2="62.4013">
		<stop  offset="0" style="stop-color:#EE5D06"/>
		<stop  offset="1" style="stop-color:#F79408"/>
	</linearGradient>
	<path style="fill:url(#SVGID_1_);" d="M463.65,88.19v8.49c0,0-0.64,0.19-1.87,0.55c-143.8,42.91-263.27,28.6-344.65,5.11
		C42.58,80.81,0,51.58,0,51.58V0C209.48,149.77,463.65,88.19,463.65,88.19z"/>
	<path style="fill:#DB3D06;" d="M463.65,96.68v32.82c-47.29,8.29-90.77,11.51-129.79,11.51c-128.06,0-208.01-34.7-216.73-38.67
		c-0.4-0.18-0.65-0.3-0.75-0.35c154.11,46.56,322.26,1.82,344.74-4.57c0.23-0.07,0.46-0.13,0.66-0.19
		C463.01,96.87,463.65,96.68,463.65,96.68z"/>
</g>
</svg>
