<svg version="1.1" xmlns="http://www.w3.org/2000/svg" xmlns:xlink="http://www.w3.org/1999/xlink" x="0px" y="0px"
	 viewBox="0 0 463.652 158.59" style="enable-background:new 0 0 463.652 158.59;" xml:space="preserve">
<g>
	<path style="fill:#730504;" d="M463.652,41.242c0,0-131.973,119.686-341.973,38.328c0,0,190.304,101.465,341.973-11.838V41.242z"/>
	<linearGradient id="SVGID_1_" gradientUnits="userSpaceOnUse" x1="0.0017" y1="100.33" x2="463.6516" y2="100.33">
		<stop  offset="0" style="stop-color:#EA4C05"/>
		<stop  offset="1" style="stop-color:#AA0C08"/>
	</linearGradient>
	<path style="fill:url(#SVGID_1_);" d="M463.652,67.73V93.6c-6.58,4.57-13.19,8.85-19.85,12.87h-0.01
		c-14.45,8.7-29.07,16.12-43.77,22.4c-50.86,21.72-102.64,29.72-151.33,29.72c-136.45,0-248.69-62.84-248.69-62.84V42.07
		c0,0,0.01,0.01,0.02,0.02c68.47,43.68,133.49,65.82,192.01,74.82c1.8,0.28,3.6,0.54,5.38,0.79c0.01,0,0.02,0,0.02,0
		c30.86,4.36,59.87,5.08,86.55,3.42c0.01,0,0.01,0,0.02,0h0.01c3.29-0.2,6.53-0.44,9.75-0.71h0.03
		c100.96-8.61,166.38-50.42,169.73-52.59C463.612,67.76,463.652,67.73,463.652,67.73z"/>
	<path style="fill:#B14116;" d="M0,42.065c0,0,117.485,101.945,276.606,94.483c0,0-184.01-29.602-276.606-123.002V42.065z"/>
	<path style="fill:#F89D08;" d="M463.652,100.84v15.61c-21.82,5.51-43.05,9.59-63.63,12.42c-71.72,9.88-135.7,4.66-190.33-7.66
		c-0.02,0-0.04-0.01-0.06-0.01c-5.98-1.35-11.85-2.78-17.6-4.29C70.602,85.07,0.002,19.96,0.002,19.96V0
		c39.68,35.53,80.91,61.24,121.68,79.57l0.01,0.01c0.02,0,0.04,0.01,0.07,0.02h0.01c60.52,27.2,120.02,38.14,171.99,40.81h0.03
		c5.89,0.3,11.69,0.5,17.38,0.59h0.09c59.39,1.06,107.17-8.2,132.53-14.53h0.01C456.572,103.28,463.652,100.84,463.652,100.84z"/>
</g>
</svg>
