<svg version="1.1" id="Layer_1" xmlns="http://www.w3.org/2000/svg" xmlns:xlink="http://www.w3.org/1999/xlink" x="0px" y="0px"
	 viewBox="0 0 463.7 158.6" style="enable-background:new 0 0 463.7 158.6;" xml:space="preserve">
<style type="text/css">
	.st0{fill:#730504;}
	.st1{fill:url(#SVGID_1_);}
	.st2{fill:#B14116;}
	.st3{fill:#F89D08;}
</style>
<g>
	<path class="st0" d="M463.5,41.2c0,0-132,119.7-342,38.4c0,0,190.3,101.4,342-11.9V41.2z"/>
	
		<linearGradient id="SVGID_1_" gradientUnits="userSpaceOnUse" x1="-899.848" y1="708.35" x2="-436.148" y2="708.35" gradientTransform="matrix(1 0 0 1 899.848 -608)">
		<stop  offset="0" style="stop-color:#EA4C05"/>
		<stop  offset="1" style="stop-color:#AA0C08"/>
	</linearGradient>
	<path class="st1" d="M463.7,67.7v25.9c-6.6,4.6-13.2,8.9-19.9,12.9l0,0c-14.5,8.7-29.1,16.1-43.8,22.4
		c-50.8,21.7-102.6,29.7-151.3,29.7C112.2,158.6,0,95.8,0,95.8l0-53.7l0,0c68.5,43.7,133.5,65.8,192,74.8c1.8,0.3,3.6,0.6,5.4,0.8
		l0,0c30.8,4.3,59.8,5.1,86.5,3.4l0,0l0,0c3.3-0.2,6.6-0.4,9.8-0.7l0,0c100.9-8.6,166.4-50.4,169.7-52.6
		C463.5,67.8,463.5,67.7,463.7,67.7z"/>
	<path class="st2" d="M-0.2,42c0,0,117.5,102,276.6,94.5c0,0-184-29.6-276.6-123V42z"/>
	<path class="st3" d="M463.5,100.8v15.6c-21.8,5.6-43,9.6-63.6,12.5c-71.7,9.8-135.7,4.6-190.3-7.7c-0.1,0-0.1,0-0.1,0
		c-6-1.4-11.8-2.8-17.6-4.3C70.5,85.1-0.1,20-0.1,20V0c39.7,35.6,80.9,61.3,121.7,79.6l0,0c0.1,0,0.1,0,0.1,0l0,0
		c60.5,27.2,120,38.1,172,40.8l0,0c5.9,0.3,11.7,0.5,17.4,0.6h0.1c59.4,1.1,107.1-8.2,132.5-14.5l0,0
		C456.4,103.3,463.5,100.8,463.5,100.8z"/>
</g>
</svg>
