<svg version="1.1" xmlns="http://www.w3.org/2000/svg" xmlns:xlink="http://www.w3.org/1999/xlink" x="0px" y="0px"
	 viewBox="0 0 463.653 222.693" style="enable-background:new 0 0 463.653 222.693;" xml:space="preserve">
<g>
	<path style="fill:#AD1508;" d="M0,177.831v8.872c0,0,263.615,48.841,463.652-186.703C463.652,0,277.438,204.544,0,177.831z"/>
	<path style="fill:#FDBE03;" d="M0,166.625c0,0,232.068,53.66,463.652-166.625C463.652,0,274.63,214.796,0,177.831V166.625z"/>
	<path style="fill:#F87B0A;" d="M463.653,0.003v6.57c0,0-194.1,216.12-439.68,216.12c-7.94,0-15.93-0.22-23.97-0.69v-35.3
		c0,0,0.09,0.02,0.26,0.05c2.52,0.51,23.3,4.42,57.07,4.14c0.2,0.01,0.4,0,0.59,0c72.74-0.68,205.06-20.8,344.9-135.26
		c0.1-0.07,0.21-0.16,0.31-0.25c13.72-11.23,27.51-23.38,41.33-36.51c0.05-0.05,0.1-0.1,0.15-0.14c6.3-6,12.61-12.19,18.92-18.6
		c0.02-0.03,0.06-0.07,0.09-0.1L463.653,0.003z"/>
</g>
</svg>
