<svg version="1.1" xmlns="http://www.w3.org/2000/svg" xmlns:xlink="http://www.w3.org/1999/xlink" x="0px" y="0px"
	 viewBox="0 0 464.15 329.63" style="enable-background:new 0 0 464.15 329.63;" xml:space="preserve">
<g>
	<linearGradient id="SVGID_1_" gradientUnits="userSpaceOnUse" x1="105.08" y1="143.09" x2="464.15" y2="143.09">
		<stop  offset="0" style="stop-color:#D63319"/>
		<stop  offset="1" style="stop-color:#9C0A09"/>
	</linearGradient>
	<path style="fill:url(#SVGID_1_);" d="M464.15,1.98v41.6c-0.17,0.07-0.33,0.14-0.5,0.21C266.06,125,125.38,263.6,107.1,282.14
		c-0.01,0.01-0.03,0.03-0.05,0.04c-1.31,1.32-1.97,2.02-1.97,2.02c0.19-0.29,0.38-0.59,0.57-0.88c2.13-3.31,4.27-6.58,6.44-9.81
		c3.7-5.58,7.44-11.05,11.21-16.41c0.07-0.11,0.15-0.22,0.23-0.33C254.62,70.41,414.66,15.63,454.72,4.4
		c0.19-0.06,0.38-0.11,0.57-0.17c4.41-1.22,7.27-1.89,8.36-2.14C463.98,2.02,464.15,1.98,464.15,1.98z"/>
	
		<linearGradient id="SVGID_00000062171636451996601600000006924175042373313944_" gradientUnits="userSpaceOnUse" x1="0" y1="164.8149" x2="463.65" y2="164.8149">
		<stop  offset="0" style="stop-color:#E97F11"/>
		<stop  offset="1" style="stop-color:#DC4413"/>
	</linearGradient>
	<path style="fill:url(#SVGID_00000062171636451996601600000006924175042373313944_);" d="M463.65,0v1.98c0,0-2.93,0.67-8.36,2.25
		c-0.19,0.06-0.38,0.11-0.57,0.17c-38.95,11.45-197.91,67.62-331.19,252.37c-0.08,0.11-0.16,0.22-0.23,0.33
		c-6.31,8.74-12.55,17.77-18.72,27.1c-9.54,14.42-18.9,29.56-28.04,45.43H0v-72.67C0,256.96,163.85,62.69,463.65,0z"/>
	
		<linearGradient id="SVGID_00000178204157084009471770000013915149219994910626_" gradientUnits="userSpaceOnUse" x1="104.58" y1="163.8899" x2="463.65" y2="163.8899">
		<stop  offset="0" style="stop-color:#E88902"/>
		<stop  offset="1" style="stop-color:#EAC107"/>
	</linearGradient>
	<path style="fill:url(#SVGID_00000178204157084009471770000013915149219994910626_);" d="M463.65,43.58v35.11
		c-172,56.81-334.54,185.62-356.55,203.45c-0.01,0.01-0.03,0.03-0.05,0.04c-0.56,0.46-1.03,0.84-1.4,1.14
		c-0.71,0.58-1.07,0.88-1.07,0.88c2.38-3.59,4.88-7.15,7.51-10.69C208.97,142.34,463.65,43.58,463.65,43.58z"/>
</g>
</svg>
