<svg version="1.1" xmlns="http://www.w3.org/2000/svg" xmlns:xlink="http://www.w3.org/1999/xlink" x="0px" y="0px"
	 viewBox="0 0 463.652 198.943" style="enable-background:new 0 0 463.652 198.943;" xml:space="preserve">
<g>
	<path style="fill:#E88902;" d="M463.652,173.603v25.34c-103.51-55.11-189.85-58.29-305.41-16.51
		c-33.73,12.2-61.26,16.51-83.32,16.51c-53.52,0-74.92-25.4-74.92-25.4v-97.38c0,0,31.43,116.1,204.45,58.48
		c169.75-56.53,255.91,35.36,259.11,38.87C463.622,173.573,463.652,173.603,463.652,173.603z"/>
	<path style="fill:#E02804;" d="M0,0c0,0-0.322,129.697,114.357,129.697s222.201-66.157,349.295,34.105v9.797
		c0,0-60.955-58.308-160.615-55.184C197.76,121.715,64.5,211.002,0,91.036V0z"/>
</g>
</svg>
