<svg version="1.1" xmlns="http://www.w3.org/2000/svg" xmlns:xlink="http://www.w3.org/1999/xlink" x="0px" y="0px"
	 viewBox="0 0 463.65 159.842" style="enable-background:new 0 0 463.65 159.842;" xml:space="preserve">
<g>
	<linearGradient id="SVGID_1_" gradientUnits="userSpaceOnUse" x1="0" y1="93.188" x2="463.62" y2="93.188">
		<stop  offset="0" style="stop-color:#F6D301"/>
		<stop  offset="1" style="stop-color:#F6D301"/>
	</linearGradient>
	<path style="fill:url(#SVGID_1_);" d="M463.62,149.552c-18.99,6.47-43.91,10.29-72.07,10.29c-50.21,0-110.67-12.14-165.99-42.96
		C139.22,68.773,0,72.283,0,72.283v-41.67c0,0,71.88-23.75,201.76,43.37c30.11,15.55,57.83,27.97,83.05,37.86
		c0.01,0,0.02,0.01,0.03,0.01c111.06,43.54,173.7,38.22,178.51,37.73c0.08-0.01,0.14-0.02,0.19-0.02c0.02-0.01,0.04-0.01,0.05-0.01
		H463.62z"/>
	<path style="fill:#F87B0A;" d="M463.65,149.542c0,0-0.01,0-0.03,0.01h-0.03c-0.01,0-0.03,0-0.05,0.01
		c-3.69,0.96-99.71,24.9-202.04-39.87C197.47,69.172,108.92,19.722,0,30.612V0.062c0,0,101.89-5.12,231.82,77.38l0.01,0.01h0.01
		c0.02,0.02,0.07,0.04,0.15,0.09C347.85,151.052,463.65,149.542,463.65,149.542z"/>
	<path style="fill:#820707;" d="M463.65,79.402v70.14c0,0-0.01,0-0.03,0.01h-0.03c-0.01,0-0.03,0-0.05,0.01
		c-0.05,0-0.11,0.01-0.19,0.02c-5.47,0.79-86.04,11.27-178.51-37.73c-0.01,0-0.02-0.01-0.03-0.01
		c-17.37-9.21-35.17-20.52-52.97-34.39c0.02,0.02,0.07,0.04,0.15,0.09C237.11,80.472,360.16,149.542,463.65,79.402z"/>
</g>
</svg>
