<svg version="1.1" xmlns="http://www.w3.org/2000/svg" xmlns:xlink="http://www.w3.org/1999/xlink" x="0px" y="0px"
	 viewBox="0 0 463.65 295.16" style="enable-background:new 0 0 463.65 295.16;" xml:space="preserve">
<g>
	<path style="fill:#D23506;" d="M433.66,7.78c17.89-4.9,28.66-7.47,29.87-7.75C365.94,29.19,286.8,64.91,223.4,101.31
		C58.5,195.96,0,295.16,0,295.16v-89.7C146.53,93.53,356.19,29,433.51,7.82C433.56,7.8,433.61,7.79,433.66,7.78z"/>
	<path style="fill:#820707;" d="M463.65,0v57.44c-104.28-12.53-197.02,23.2-240.25,43.87c-14.39,6.88-23.3,12.09-25.33,13.3
		c99.2-62.39,190.15-93.7,235.44-106.79c0.05-0.02,0.1-0.03,0.15-0.04c17.92-5.18,28.65-7.5,29.87-7.75c0.01,0,0.03,0,0.04-0.01
		C463.62,0.01,463.65,0,463.65,0z"/>
</g>
</svg>
