<svg xmlns="http://www.w3.org/2000/svg" xmlns:xlink="http://www.w3.org/1999/xlink" viewBox="0 0 200 688"><defs><style>.cls-1{mask:url(#mask);filter:url(#luminosity-noclip-2);}.cls-2,.cls-6,.cls-9{mix-blend-mode:multiply;}.cls-2{fill:url(#linear-gradient);}.cls-3{fill:none;}.cls-4{isolation:isolate;}.cls-5{fill:#363434;}.cls-7{clip-path:url(#clip-path);}.cls-8{fill:url(#radial-gradient);}.cls-10,.cls-9{fill:#e6e6e6;}.cls-9{opacity:0.3;}.cls-11{fill:#333;}.cls-11,.cls-12,.cls-13,.cls-14,.cls-15,.cls-16,.cls-17{mix-blend-mode:overlay;}.cls-12,.cls-17{fill:#b3b3b3;}.cls-13{fill:#1a1a1a;}.cls-14{fill:#666;}.cls-15{fill:#999;}.cls-16{fill:#4d4d4d;}.cls-17{opacity:0.5;}.cls-18{mask:url(#mask-2);}.cls-19{fill:url(#linear-gradient-2);}.cls-20{filter:url(#luminosity-noclip);}</style><filter id="luminosity-noclip" x="0" y="-8536" width="200" height="32766" filterUnits="userSpaceOnUse" color-interpolation-filters="sRGB"><feFlood flood-color="#fff" result="bg"/><feBlend in="SourceGraphic" in2="bg"/></filter><mask id="mask" x="0" y="-8536" width="200" height="32766" maskUnits="userSpaceOnUse"><g class="cls-20"/></mask><linearGradient id="linear-gradient" x1="98.96" y1="242.98" x2="100.98" y2="438.83" gradientUnits="userSpaceOnUse"><stop offset="0" stop-color="#fff"/><stop offset="0.05" stop-color="#dadada"/><stop offset="0.15" stop-color="#999"/><stop offset="0.25" stop-color="#626262"/><stop offset="0.33" stop-color="#383838"/><stop offset="0.41" stop-color="#191919"/><stop offset="0.48" stop-color="#070707"/><stop offset="0.53"/><stop offset="0.61" stop-color="#030303"/><stop offset="0.67" stop-color="#0d0d0d"/><stop offset="0.73" stop-color="#1d1d1d"/><stop offset="0.78" stop-color="#343434"/><stop offset="0.83" stop-color="#515151"/><stop offset="0.88" stop-color="#757575"/><stop offset="0.92" stop-color="#a0a0a0"/><stop offset="0.96" stop-color="#d1d1d1"/><stop offset="1" stop-color="#fff"/></linearGradient><clipPath id="clip-path"><rect class="cls-3" x="-244" y="244" width="688" height="200" transform="translate(444 244) rotate(90)"/></clipPath><radialGradient id="radial-gradient" cx="-31.84" cy="344" r="165.85" gradientTransform="translate(151.62) scale(1.62 1)" gradientUnits="userSpaceOnUse"><stop offset="0" stop-color="#fff"/><stop offset="0.19" stop-color="#f8f9fa"/><stop offset="1" stop-color="#dae2e5"/></radialGradient><filter id="luminosity-noclip-2" x="0" y="0" width="200" height="688" filterUnits="userSpaceOnUse" color-interpolation-filters="sRGB"><feFlood flood-color="#fff" result="bg"/><feBlend in="SourceGraphic" in2="bg"/></filter><mask id="mask-2" x="0" y="0" width="200" height="688" maskUnits="userSpaceOnUse"><g class="cls-1"><rect class="cls-2" x="-244" y="244" width="688" height="200" transform="translate(444 244) rotate(90)"/></g></mask><linearGradient id="linear-gradient-2" x1="98.96" y1="242.98" x2="100.98" y2="438.83" gradientUnits="userSpaceOnUse"><stop offset="0" stop-color="#fff"/><stop offset="0.53" stop-color="#fff"/><stop offset="0.95" stop-color="#fff"/><stop offset="1" stop-color="#fff"/></linearGradient></defs><g class="cls-4"><g id="Object"><rect class="cls-5" width="200" height="688"/><g class="cls-6"><g class="cls-7"><rect class="cls-8" x="-244" y="244" width="688" height="200" transform="translate(444 244) rotate(90)"/><polygon class="cls-9" points="-5.13 546.86 -32.7 613.89 62.88 846.33 90.44 779.3 -5.13 546.86"/><polygon class="cls-10" points="-39.9 -66.28 -30.03 -90.27 290.37 688.97 280.5 712.95 -39.9 -66.28"/><polygon class="cls-10" points="-131.49 61.86 -121.63 37.88 198.77 817.12 188.91 841.1 -131.49 61.86"/><polygon class="cls-11" points="-88.9 52.9 -53.54 -33.11 266.86 746.13 231.5 832.14 -88.9 52.9"/><polygon class="cls-12" points="-123.33 146.34 -107 106.62 213.4 885.86 197.06 925.58 -123.33 146.34"/><polygon class="cls-13" points="72.94 -210.63 85.12 -240.24 323.96 340.65 311.79 370.26 72.94 -210.63"/><polygon class="cls-13" points="-0.28 -118.02 11.9 -147.63 250.75 433.26 238.57 462.87 -0.28 -118.02"/><polygon class="cls-14" points="36.75 -122.6 48.92 -152.21 287.77 428.68 275.59 458.29 36.75 -122.6"/><polygon class="cls-14" points="-96.64 352.3 -84.47 322.69 154.38 903.58 142.21 933.19 -96.64 352.3"/><polygon class="cls-14" points="-71.59 297.26 -59.41 267.65 179.43 848.54 167.25 878.15 -71.59 297.26"/><polygon class="cls-15" points="87.58 958.1 82.02 944.57 309.33 391.74 314.89 405.26 87.58 958.1"/><polygon class="cls-15" points="-111.15 362.73 -116.71 349.2 110.6 -203.63 116.16 -190.11 -111.15 362.73"/><polygon class="cls-11" points="51.38 830.04 45.82 816.52 273.13 263.68 278.69 277.2 51.38 830.04"/><polygon class="cls-11" points="124.26 979.77 118.7 966.25 346.01 413.41 351.57 426.94 124.26 979.77"/><polygon class="cls-11" points="222.25 659.74 212.42 662.85 -14.63 109.73 -4.79 106.62 222.25 659.74"/><polygon class="cls-11" points="243.68 512.99 233.84 516.1 6.79 -37.03 16.63 -40.13 243.68 512.99"/><polygon class="cls-11" points="179.43 737.88 169.59 740.99 -57.45 187.86 -47.62 184.75 179.43 737.88"/><polygon class="cls-11" points="-16.16 645.91 -21.71 632.38 205.6 79.55 211.16 93.07 -16.16 645.91"/><polygon class="cls-15" points="75.95 884.96 64.42 856.92 291.73 304.08 303.26 332.12 75.95 884.96"/><polygon class="cls-15" points="40.89 774.77 33.64 757.13 260.95 204.29 268.2 221.93 40.89 774.77"/><polygon class="cls-15" points="-0.16 618.62 -7.42 600.98 219.9 48.14 227.15 65.78 -0.16 618.62"/><polygon class="cls-15" points="-34.7 538.13 -41.95 520.48 185.36 -32.35 192.61 -14.71 -34.7 538.13"/><polygon class="cls-15" points="27.28 741.65 20.02 724.01 247.34 171.17 254.59 188.82 27.28 741.65"/><polygon class="cls-14" points="-0.78 698.11 -17.86 656.58 240.86 27.35 257.94 68.87 -0.78 698.11"/><polygon class="cls-14" points="-17.27 572.9 -21.71 562.1 237.01 -67.13 241.45 -56.33 -17.27 572.9"/><polygon class="cls-16" points="-23.58 526.86 -31.34 507.99 227.38 -121.24 235.14 -102.37 -23.58 526.86"/><polygon class="cls-16" points="-55.64 430.67 -63.4 411.8 195.32 -217.44 203.08 -198.56 -55.64 430.67"/><polygon class="cls-12" points="-45.88 444.06 -50.23 433.48 208.49 -195.75 212.84 -185.18 -45.88 444.06"/><polygon class="cls-17" points="-14.63 147.09 -10.28 136.51 248.44 765.74 244.09 776.32 -14.63 147.09"/><polygon class="cls-12" points="-60.27 376.37 -68.03 357.5 190.69 -271.73 198.45 -252.86 -60.27 376.37"/></g><g class="cls-18"><rect class="cls-19" x="-244" y="244" width="688" height="200" transform="translate(444 244) rotate(90)"/></g></g></g></g></svg>