<svg xmlns="http://www.w3.org/2000/svg" xmlns:xlink="http://www.w3.org/1999/xlink" width="628.99" height="462.748" viewBox="0 0 628.99 462.748">
  <defs>
    <linearGradient id="linear-gradient" x1="-0.077" y1="-0.016" x2="0.954" y2="0.868" gradientUnits="objectBoundingBox">
      <stop offset="0" stop-color="#ff1300"/>
      <stop offset="0.024" stop-color="#ff1a00"/>
      <stop offset="0.144" stop-color="#ff3c02"/>
      <stop offset="0.273" stop-color="#ff5804"/>
      <stop offset="0.411" stop-color="#ff6d05"/>
      <stop offset="0.564" stop-color="#ff7d06"/>
      <stop offset="0.741" stop-color="#ff8606"/>
      <stop offset="1" stop-color="#ff8907"/>
    </linearGradient>
    <linearGradient id="linear-gradient-2" x1="-0.147" y1="0.5" x2="1.059" y2="0.5" gradientUnits="objectBoundingBox">
      <stop offset="0" stop-color="#e01514"/>
      <stop offset="0.105" stop-color="#e31818"/>
      <stop offset="0.468" stop-color="#ea2121"/>
      <stop offset="1" stop-color="#ed2424"/>
    </linearGradient>
    <linearGradient id="linear-gradient-3" x1="-0.289" y1="0.5" x2="0.711" y2="0.5" xlink:href="#linear-gradient-2"/>
    <radialGradient id="radial-gradient" cx="0.542" cy="0.349" r="0.806" gradientTransform="matrix(0.766, 0.497, -0.209, 0.414, 0.2, -0.064)" gradientUnits="objectBoundingBox">
      <stop offset="0" stop-color="#550002"/>
      <stop offset="0.197" stop-color="#5e0101" stop-opacity="0.941"/>
      <stop offset="0.428" stop-color="#7b0401" stop-opacity="0.773"/>
      <stop offset="0.676" stop-color="#aa0900" stop-opacity="0.498"/>
      <stop offset="0.935" stop-color="#ec1000" stop-opacity="0.11"/>
      <stop offset="1" stop-color="#ff1300" stop-opacity="0"/>
    </radialGradient>
    <radialGradient id="radial-gradient-2" cx="0.382" cy="0.407" r="0.563" gradientTransform="matrix(0.62, 0.639, -0.332, 0.496, 0.28, -0.039)" gradientUnits="objectBoundingBox">
      <stop offset="0" stop-color="#940000"/>
      <stop offset="0.143" stop-color="#970000" stop-opacity="0.969"/>
      <stop offset="0.312" stop-color="#a10200" stop-opacity="0.871"/>
      <stop offset="0.493" stop-color="#b20500" stop-opacity="0.71"/>
      <stop offset="0.683" stop-color="#ca0900" stop-opacity="0.486"/>
      <stop offset="0.879" stop-color="#e90f00" stop-opacity="0.204"/>
      <stop offset="1" stop-color="#ff1300" stop-opacity="0"/>
    </radialGradient>
  </defs>
  <g id="Group_91" data-name="Group 91" transform="translate(5787 665)">
    <path id="Path_5" data-name="Path 5" d="M548.676,0H0V254.318l.2-.029Q.18,329.869.1,405.449c-.005,4.509,1.33,6.267,5.535,7.47a389.728,389.728,0,0,0,136.631,14.1C262.2,418.265,364,368.807,451.686,288.3c56.573-51.941,98.6-113.749,124.559-186.233A465.017,465.017,0,0,0,599.779.97,9.13,9.13,0,0,1,600,0Z" transform="translate(-5787 -665)" opacity="0.97" fill="url(#linear-gradient)"/>
    <g id="Group_2" data-name="Group 2" transform="translate(-5787 -665)">
      <g id="Group_1" data-name="Group 1">
        <path id="Path_1" data-name="Path 1" d="M628.99,0V2a37.991,37.991,0,0,0-1.02,4.31c-1.37,11.03-2.36,22.13-4.05,33.11-9.14,59.46-29.36,114.98-59.83,166.82-34.45,58.62-79.96,107.41-133.86,148.38-83.7,63.62-177.26,101.9-283.12,107.54A397.231,397.231,0,0,1,4.94,444.18C1.02,442.94,0,441.24,0,437.27Q.165,221.465.09,5.65V2.24C.16,3.81.22,5.39.22,6.96Q.235,206.2.1,405.45c0,4.51,1.33,6.27,5.54,7.47a389.8,389.8,0,0,0,136.63,14.1C262.2,418.27,364,368.81,451.69,288.3c56.57-51.94,98.6-113.75,124.55-186.24A464.813,464.813,0,0,0,599.78.97a6.68,6.68,0,0,1,.16-.75h23.09C625.02.22,627.01.08,628.99,0Z" opacity="0.6" fill="url(#linear-gradient-2)"/>
        <path id="Path_2" data-name="Path 2" d="M553.04,6.29a479.518,479.518,0,0,1-18.22,124.38c-25.98,90.98-72.7,169.07-145.88,230.06-49.59,41.34-105.73,68.76-170.91,74.57-44.09,3.93-86.45-3-126.35-22.97a183.035,183.035,0,0,1-33.2-21.03,137,137,0,0,1-33.55-39.16A147.892,147.892,0,0,0,11.17,332.6C8.01,328.69,3.76,325.67,0,322.26V254.32s27.53-4.35,45.95,18.71c15.71,19.66,28.29,66.58,109.54,88.42a319.329,319.329,0,0,0,48.67,8.81C332.62,384.19,525.11,249.74,548.67.15h4.37C553.04,2.67,553.07,4.48,553.04,6.29Z" opacity="0.6" fill="url(#linear-gradient-3)"/>
        <path id="Path_3" data-name="Path 3" d="M155.49,361.45,58.48,391.3a137,137,0,0,1-33.55-39.16A147.892,147.892,0,0,0,11.17,332.6C8.01,328.69,3.76,325.67,0,322.26V254.32s27.53-4.35,45.95,18.71C61.66,292.69,74.24,339.61,155.49,361.45Z" opacity="0.5" fill="url(#radial-gradient)"/>
      </g>
      <path id="Path_4" data-name="Path 4" d="M131.13,427.68A389.413,389.413,0,0,1,5.64,412.92C1.43,411.72.1,409.96.1,405.45q.045-37.785.07-75.58c0-2.48,0-4.97.01-7.45,3.71,3.35,7.88,6.33,10.99,10.18a147.892,147.892,0,0,1,13.76,19.54A137,137,0,0,0,58.48,391.3a183.035,183.035,0,0,0,33.2,21.03A225.313,225.313,0,0,0,131.13,427.68Z" opacity="0.5" fill="url(#radial-gradient-2)"/>
    </g>
  </g>
</svg>
