<svg xmlns="http://www.w3.org/2000/svg" xmlns:xlink="http://www.w3.org/1999/xlink" width="977.35" height="707.88" viewBox="0 0 977.35 707.88">
  <defs>
    <style>
      .cls-1 {
        fill: none;
      }

      .cls-2 {
        clip-path: url(#clip-path);
      }

      .cls-3 {
        fill: #b10207;
      }

      .cls-4 {
        fill: #e50b00;
      }

      .cls-5 {
        fill: url(#linear-gradient);
      }

      .cls-6 {
        fill: url(#radial-gradient);
      }

      .cls-7 {
        filter: url(#Path_6);
      }
    </style>
    <clipPath id="clip-path">
      <path id="Path_11" data-name="Path 11" class="cls-1" d="M1286.124,0V568.1q-27.8,10.18-57.321,18.164c-70.31,19.07-147.617,28.817-230.251,28.817-175.688,0-334.854-62.134-450.614-162.77-32.331-29-60.432-60.462-83.641-94C420.016,294.348,393.455,222.84,389,146.469A396.051,396.051,0,0,1,404.943,10.512l-3.383.2q1.4-5.377,2.93-10.713Z" transform="translate(-388.344)"/>
    </clipPath>
    <filter id="Path_6" x="0" y="0" width="977.35" height="707.88" filterUnits="userSpaceOnUse">
      <feOffset dx="-10" dy="3" input="SourceAlpha"/>
      <feGaussianBlur stdDeviation="5" result="blur"/>
      <feFlood/>
      <feComposite operator="in" in2="blur"/>
      <feComposite in="SourceGraphic"/>
    </filter>
    <linearGradient id="linear-gradient" y1="0.5" x2="1" y2="0.5" gradientUnits="objectBoundingBox">
      <stop offset="0" stop-color="#ff8907"/>
      <stop offset="0.223" stop-color="#ff5e04"/>
      <stop offset="0.439" stop-color="#ff3d02"/>
      <stop offset="0.645" stop-color="#ff2601"/>
      <stop offset="0.837" stop-color="#ff1700"/>
      <stop offset="1" stop-color="#ff1300"/>
    </linearGradient>
    <radialGradient id="radial-gradient" cx="0.427" cy="0.476" fx="0.3279726505279541" r="0.211" gradientTransform="matrix(1.131, -0.651, 2.499, 1.953, -1.095, -0.191)" gradientUnits="objectBoundingBox">
      <stop offset="0" stop-color="#360000"/>
      <stop offset="0.255" stop-color="#410000" stop-opacity="0.91"/>
      <stop offset="0.554" stop-color="#610002" stop-opacity="0.643"/>
      <stop offset="0.875" stop-color="#970105" stop-opacity="0.208"/>
      <stop offset="1" stop-color="#b10207" stop-opacity="0"/>
    </radialGradient>
  </defs>
  <g id="Group_93" data-name="Group 93" transform="translate(-66.324 12)">
    <g id="Group_91" data-name="Group 91" transform="translate(-247.656)">
      <g id="Group_4" data-name="Group 4" class="cls-2" transform="translate(388.344)">
        <g id="sjaWRX.tif" transform="translate(-162.452)">
          <image id="Layer_1" data-name="Layer 1" width="1060.232" height="757.165" xlink:href="header2-image.jpg"/>
        </g>
      </g>
    </g>
    <g id="Group_92" data-name="Group 92" transform="translate(-241.326)">
      <g class="cls-7" transform="matrix(1, 0, 0, 1, 307.65, -12)">
        <path id="Path_6-2" data-name="Path 6" d="M347.85,0a469.03,469.03,0,0,0-15.2,118.55c0,139.15,61.37,266.42,162.92,364.3,123.9,119.4,307.6,195.03,512.65,195.03,96.68,0,188.62-16.81,271.78-47.1V600.24S930.2,747.051,593,535.519C268.372,313.93,347.85,0,347.85,0Z" transform="translate(-307.65 12)"/>
      </g>
      <path id="Path_7" data-name="Path 7" class="cls-3" d="M1280,600.24v30.54c-83.16,30.29-175.1,47.1-271.78,47.1-205.05,0-388.75-75.63-512.65-195.03,123.19,105.3,297.89,171.03,491.65,171.03C1092.11,653.88,1191.42,634.62,1280,600.24Z"/>
      <path id="Path_8" data-name="Path 8" class="cls-4" d="M1279.995,564.22v36.02c-88.58,34.38-187.89,53.64-292.78,53.64-193.76,0-368.46-65.73-491.65-171.03-101.55-97.88-162.92-225.15-162.92-364.3A469.03,469.03,0,0,1,347.845,0h56.53a436.958,436.958,0,0,0-16.96,120.68c0,68.49,15.93,133.78,44.76,193.25,30.83,63.57,76.41,120.5,133.05,167.61a.109.109,0,0,1,.04.02,569.815,569.815,0,0,0,46.62,34.86l.01.01c98.45,66.09,222.2,105.45,356.61,105.45,93.31,0,179.13-13.45,254.56-39.62Q1252.36,574.325,1279.995,564.22Z"/>
      <path id="Path_9" data-name="Path 9" class="cls-5" d="M1223.07,582.26c-75.43,26.17-161.25,39.62-254.56,39.62-241.52,0-448.62-127.08-536.33-307.95C539.15,490.6,750.79,610.88,994.39,610.88,1076.46,610.88,1153.24,601.2,1223.07,582.26Z"/>
      <path id="Path_10" data-name="Path 10" class="cls-6" d="M679.61,537.784c-41.707,0-385.285-74.713-351.48-522.764l78.7-4.583A393.218,393.218,0,0,0,391,145.465c4.417,75.853,36.634,143.209,74.775,210.4C522.566,455.9,656.285,527.019,679.61,537.784Z"/>
    </g>
  </g>
</svg>
