<?xml version="1.0" encoding="iso-8859-1"?>
<!-- Generator: Adobe Illustrator 26.0.1, SVG Export Plug-In . SVG Version: 6.00 Build 0)  -->
<svg version="1.1" id="Layer_1" xmlns="http://www.w3.org/2000/svg" xmlns:xlink="http://www.w3.org/1999/xlink" x="0px" y="0px"
	 viewBox="0 0 464.5 1622.786" style="enable-background:new 0 0 464.5 1622.786;" xml:space="preserve">
<g>
	<defs>
		<path id="XMLID_00000107552764530297768060000012505732507717497997_" d="M464.075,0v1608.096c-0.09,0.02-0.17,0.05-0.26,0.07
			c-0.45,0.11-0.91,0.23-1.37,0.34c-0.72,0.18-1.46,0.36-2.22,0.54c-0.87,0.22-1.77,0.43-2.68,0.64c-1.37,0.33-2.79,0.66-4.26,0.98
			c-0.19,0.05-0.39,0.09-0.59,0.13c-0.2,0.05-0.4,0.1-0.6,0.13c-0.18,0.05-0.36,0.09-0.54,0.12c-0.65,0.15-1.32,0.3-2,0.44
			c-0.22,0.05-0.45,0.1-0.67,0.14c-1.92,0.42-3.91,0.83-5.97,1.23c-0.63,0.13-1.27,0.26-1.92,0.38c-1.29,0.25-2.6,0.5-3.94,0.75
			c-1.66,0.31-3.37,0.62-5.11,0.92c-1.54,0.27-3.12,0.54-4.73,0.8c-0.42,0.07-0.84,0.14-1.27,0.21c-2.34,0.38-4.74,0.75-7.2,1.11
			c0,0-0.01,0.01-0.02,0c-0.918,0.135-1.859,0.266-2.793,0.399c-0.049,0.007-0.098,0.014-0.147,0.021
			c-0.017,0.002-0.035,0.005-0.052,0.007c-1.349,0.19-2.715,0.377-4.097,0.561c-0.151,0.021-0.299,0.041-0.45,0.062l-0.17,0.021
			c-2.667,0.351-5.397,0.689-8.188,1.012l-0.791,0.097c-0.74,0.08-1.49,0.17-2.24,0.25c-0.33,0.04-0.66,0.08-1,0.11
			c-0.4,0.05-0.8,0.09-1.21,0.13c-0.13,0.02-0.27,0.03-0.4,0.04c-1.63,0.18-3.28,0.34-4.95,0.5c-0.53,0.05-1.06,0.11-1.6,0.15
			c-1.7,0.16-3.42,0.32-5.16,0.46c-1.46,0.12-2.93,0.24-4.41,0.35c-0.85,0.07-1.7,0.13-2.55,0.19c0.01,0,0.03-0.01,0.04-0.01
			c-0.96,0.07-1.94,0.14-2.91,0.2h-0.01c-11.65,0.76-24.06,1.21-37.17,1.21c-29.29,0-62.04-2.23-97.43-8.12
			c-0.99-0.17-1.98-0.33-2.96-0.51c-0.99-0.17-2.04-0.36-3.06-0.54l-0.5-0.09l-0.36-0.06c-0.93-0.18-1.86-0.35-2.79-0.53l-0.74-0.14
			c-0.82-0.16-1.64-0.31-2.45-0.48l-0.29-0.06c-0.94-0.18-1.87-0.36-2.8-0.57l-0.9-0.18c-0.81-0.17-1.61-0.34-2.41-0.51
			c-0.31-0.07-0.61-0.13-0.91-0.2c-0.88-0.19-1.76-0.38-2.64-0.58l-0.27-0.06l-2.32-0.53c-0.16-0.04-0.31-0.07-0.47-0.11
			c-1.22-0.29-2.45-0.58-3.67-0.87h-0.01l-1.92-0.46l-0.83-0.21h-0.01l-0.38-0.09h-0.07l-0.72-0.19l-0.31-0.08l-2.03-0.51
			l-0.49-0.13l-1.87-0.48l-0.63-0.17l-1.08-0.28l-1.4-0.37l-0.58-0.15l-0.53-0.15l-0.43-0.12l-1.3-0.38l-0.57-0.16l-0.43-0.12
			l-0.11-0.03l-0.36-0.1h-0.01l-1.51-0.42l-0.87-0.26l-0.6-0.17l-1.61-0.46l-0.61-0.18l-0.58-0.18l-2.43-0.72l-0.64-0.2l-2.15-0.66
			l-0.55-0.17l-0.4-0.12l-0.48-0.15l-1.51-0.48h-0.01c-0.08-0.02-0.16-0.04-0.25-0.07l-0.65-0.22c-0.77-0.24-1.53-0.49-2.29-0.72
			l-0.22-0.07l-1.79-0.59l-1.71-0.57l-0.07-0.02c-0.42-0.14-0.84-0.28-1.25-0.42l-0.53-0.18l-0.55-0.19l-1.12-0.38l-2.44-0.84
			l-1.39-0.49l-1.02-0.37l-0.75-0.26l-1.67-0.6l-0.87-0.32l-1.55-0.57c-0.28-0.1-0.57-0.21-0.85-0.31
			c-1.11-0.41-2.21-0.82-3.31-1.24l-0.94-0.36l-0.94-0.36l-0.5-0.2l-1.13-0.44l-0.37-0.13l-0.79-0.31l-0.67-0.27l-1.55-0.61
			l-0.66-0.26l-1.01-0.4c-0.88-0.37-1.76-0.71-2.64-1.07l-0.68-0.28c-0.33-0.13-0.66-0.27-1-0.41c-0.76-0.31-1.53-0.63-2.28-0.95
			c-1.05-0.44-2.09-0.87-3.12-1.32l-0.2-0.08l-1.55-0.67l-2.9-1.26c-1.24-0.55-2.47-1.09-3.69-1.64l-1.34-0.62
			c-0.68-0.3-1.36-0.61-2.03-0.92l-0.01-0.01l-0.34-0.15l-0.07-0.03l-0.62-0.29l-0.06-0.03c-77.22-35.59-124.3-81.42-125.68-82.77V0
			H464.075z"/>
	</defs>
	<clipPath id="XMLID_00000057850071090160418170000011294969590205271724_">
		<use xlink:href="#XMLID_00000107552764530297768060000012505732507717497997_"  style="overflow:visible;"/>
	</clipPath>
	
		<g transform="matrix(1 0 0 1 -3.051758e-05 -1.220703e-04)" style="clip-path:url(#XMLID_00000057850071090160418170000011294969590205271724_);">
		
			<image style="overflow:visible;" width="601" height="2065" xlink:href="../images/grey1.jpg"  transform="matrix(-0.7872 0 0 -0.7872 468.8102 1625.6125)">
		</image>
	</g>
</g>
</svg>
