<?xml version="1.0" encoding="iso-8859-1"?>
<!-- Generator: Adobe Illustrator 26.0.1, SVG Export Plug-In . SVG Version: 6.00 Build 0)  -->
<svg version="1.1" id="Layer_1" xmlns="http://www.w3.org/2000/svg" xmlns:xlink="http://www.w3.org/1999/xlink" x="0px" y="0px"
	 viewBox="0 0 463.65 1622.786" style="enable-background:new 0 0 463.65 1622.786;" xml:space="preserve">
<g>
	<defs>
		<path id="XMLID_00000153669815893731673140000013488699210682078620_" d="M463.65,0v1622.706c-11.32,0.14-22.65,0.13-33.97-0.3
			c-13.25-0.51-26.47-1.32-39.67-2.53c-11.44-1.05-22.84-2.41-34.22-3.98c-13.81-1.92-27.53-4.26-41.19-7.01
			c-25.93-5.21-51.55-11.83-76.76-19.82c-49.39-15.66-96.63-36.2-141.49-62.15c-34.15-19.64-66.41-42.42-96.35-68.04V0H463.65z"/>
	</defs>
	<clipPath id="XMLID_00000081649612451493531930000003437749536988013719_">
		<use xlink:href="#XMLID_00000153669815893731673140000013488699210682078620_"  style="overflow:visible;"/>
	</clipPath>
	
		<g transform="matrix(1 0 0 1 -3.051758e-05 -1.220703e-04)" style="clip-path:url(#XMLID_00000081649612451493531930000003437749536988013719_);">
		
			<image style="overflow:visible;enable-background:new    ;" width="601" height="2065" xlink:href="../images/grey1.jpg"  transform="matrix(0.7872 0 0 0.7872 -4.7286 1.426802e-04)">
		</image>
	</g>
</g>
</svg>
