<?xml version="1.0" encoding="iso-8859-1"?>
<!-- Generator: Adobe Illustrator 26.0.1, SVG Export Plug-In . SVG Version: 6.00 Build 0)  -->
<svg version="1.1" id="Layer_1" xmlns="http://www.w3.org/2000/svg" xmlns:xlink="http://www.w3.org/1999/xlink" x="0px" y="0px"
	 viewBox="0 0 464.5 1622.786" style="enable-background:new 0 0 464.5 1622.786;" xml:space="preserve">
<g>
	<defs>
		<path id="XMLID_00000072975648917955761360000000594251161615167881_" d="M464.075,0v1371.846
			c-172,56.81-334.54,185.62-356.55,203.45c-0.01,0.01-0.03,0.03-0.05,0.04c-1.31,1.32-1.97,2.02-1.97,2.02
			c0.19-0.29,0.38-0.59,0.57-0.88c-0.71,0.58-1.07,0.88-1.07,0.88c-9.54,14.42-18.9,29.56-28.04,45.43H0.425V0H464.075z"/>
	</defs>
	<clipPath id="XMLID_00000118365285912183831740000007804123530029488257_">
		<use xlink:href="#XMLID_00000072975648917955761360000000594251161615167881_"  style="overflow:visible;"/>
	</clipPath>
	
		<g transform="matrix(1 0 0 1 -3.051758e-05 -1.220703e-04)" style="clip-path:url(#XMLID_00000118365285912183831740000007804123530029488257_);">
		
			<image style="overflow:visible;" width="601" height="2065" xlink:href="../images/grey1.jpg"  transform="matrix(-0.7872 0 0 -0.7872 468.8102 1625.6125)">
		</image>
	</g>
</g>
</svg>
