<svg xmlns="http://www.w3.org/2000/svg" xmlns:xlink="http://www.w3.org/1999/xlink" width="2106.772" height="1188.993" viewBox="0 0 2106.772 1188.993"><defs><filter id="a" x="195.662" y="273.399" width="1911.109" height="893.531" filterUnits="userSpaceOnUse"><feOffset dx="-30.294" dy="-15.436" input="SourceAlpha"/><feGaussianBlur stdDeviation="38" result="b"/><feFlood flood-opacity="0.922"/><feComposite operator="in" in2="b"/><feComposite in="SourceGraphic"/></filter><linearGradient id="c" x1="1" y1="0.468" x2="0" y2="0.532" gradientUnits="objectBoundingBox"><stop offset="0" stop-color="#a81800"/><stop offset="0.117" stop-color="#a81800"/><stop offset="0.378" stop-color="#c57512"/><stop offset="0.552" stop-color="#e2d224"/><stop offset="0.873" stop-color="#d02c0b"/><stop offset="1" stop-color="#d02c0b"/></linearGradient><filter id="d" x="28.871" y="0" width="1974.279" height="1188.993" filterUnits="userSpaceOnUse"><feOffset dx="-30.294" dy="-15.436" input="SourceAlpha"/><feGaussianBlur stdDeviation="38" result="e"/><feFlood flood-opacity="0.922"/><feComposite operator="in" in2="e"/><feComposite in="SourceGraphic"/></filter><linearGradient id="f" y1="0.653" x2="1" y2="0.347" gradientUnits="objectBoundingBox"><stop offset="0" stop-color="#c78314"/><stop offset="1" stop-color="#e91716"/></linearGradient><filter id="g" x="0" y="65.62" width="1224.802" height="959.084" filterUnits="userSpaceOnUse"><feOffset dx="-31.185" dy="-15.89" input="SourceAlpha"/><feGaussianBlur stdDeviation="25.5" result="h"/><feFlood flood-color="#373434" flood-opacity="0.749"/><feComposite operator="in" in2="h"/><feComposite in="SourceGraphic"/></filter></defs><g transform="translate(426.138 -1129.157)"><g transform="matrix(1, 0, 0, 1, -426.14, 1129.16)" filter="url(#a)"><path d="M-86.118,1532.027c-4.2,3.875,198.6,327.784,615.807,493.363,341.612,135.577,719.341,122.444,1067.239-8.909l-7.472,29.675-7.211,28.638c-189.109,88.449-381.089,131.571-575.179,121.217C353.343,2161.139-80.151,1526.522-86.118,1532.027Z" transform="translate(426.14 -1129.16)" fill="#950303"/></g><g transform="matrix(1, 0, 0, 1, -426.14, 1129.16)" filter="url(#d)"><path d="M-252.973,1258.593c134,265.643,334.308,489.551,584.326,647.326,345.892,218.278,759.63,292.99,1161.953,224.919l-23.232,55.464S329.908,2490.667-252.973,1258.593Z" transform="translate(426.14 -1129.16)" fill="url(#c)"/></g><g transform="matrix(1, 0, 0, 1, -426.14, 1129.16)" filter="url(#g)"><path d="M-206.128,1287.166c70.457,139.719,160.094,267.379,267.491,380.077,189.388,198.736,427.026,343.324,691.985,426.006-144.455-20.041-283.581-61.01-414.479-122.771-277.687-131.02-502.636-348.5-657.322-619.375Z" transform="translate(426.14 -1129.16)" fill="url(#f)"/></g></g></svg>