<svg xmlns="http://www.w3.org/2000/svg" xmlns:xlink="http://www.w3.org/1999/xlink" width="1785.155" height="1186.728" viewBox="0 0 1785.155 1186.728"><defs><filter id="a" x="0" y="652.042" width="1018.683" height="534.686" filterUnits="userSpaceOnUse"><feOffset dx="20.479" dy="14.339" input="SourceAlpha"/><feGaussianBlur stdDeviation="23" result="b"/><feFlood flood-color="#373434" flood-opacity="0.502"/><feComposite operator="in" in2="b"/><feComposite in="SourceGraphic"/></filter><linearGradient id="c" y1="0.756" x2="1" y2="0.244" gradientUnits="objectBoundingBox"><stop offset="0" stop-color="#ec4e05"/><stop offset="0.001" stop-color="#ec4e05"/><stop offset="1" stop-color="#a70908"/></linearGradient><linearGradient id="d" y1="0.618" x2="1" y2="0.382" gradientUnits="objectBoundingBox"><stop offset="0" stop-color="#760a0a"/><stop offset="1" stop-color="#a70908"/></linearGradient><filter id="e" x="594.871" y="0" width="1190.284" height="1166.402" filterUnits="userSpaceOnUse"><feOffset dx="28.67" dy="20.075" input="SourceAlpha"/><feGaussianBlur stdDeviation="25.5" result="f"/><feFlood flood-color="#373434" flood-opacity="0.749"/><feComposite operator="in" in2="f"/><feComposite in="SourceGraphic"/></filter></defs><g transform="translate(224.416 21.716)"><path d="M-152.315,542.171s245.19,486.782,793.839,483.53c0,0-400.04,79.029-768.935-168.517Z" fill="#f89d08"/><g transform="matrix(1, 0, 0, 1, -224.42, -21.72)" filter="url(#a)"><path d="M-175.9,684.987s338.467,437.1,880.683,342.109c0,0-380.254,144.561-794.005-36.862Z" transform="translate(224.42 21.72)" fill="#6a6763"/></g><path d="M-152.315,542.172S92.875,1028.953,641.524,1025.7c0,0-400.04,79.029-768.935-168.517Z" fill="#f89d08"/><path d="M-175.9,684.987s338.467,437.1,880.683,342.109c0,0-380.254,144.561-794.005-36.862Z" fill="url(#c)"/><g transform="matrix(1, 0, 0, 1, -224.42, -21.72)" filter="url(#e)"><path d="M1311.284,34.709c-7.944,211-63.324,412.509-166.887,588.077C1054.187,775.715,936.023,884,871.874,924.075c-134.948,84.308-292.622,119.694-453.59,107.609,126.6,24.711,254.617,21.9,378.022-10.871,314.656-83.567,549.456-346.2,659.262-648.475l-38.778-90.74Z" transform="translate(224.42 21.72)" fill="url(#d)"/></g></g></svg>