<svg xmlns="http://www.w3.org/2000/svg" xmlns:xlink="http://www.w3.org/1999/xlink" width="1996.32" height="606.758" viewBox="0 0 1996.32 606.758"><defs><filter id="a" x="455.402" y="204.27" width="1355" height="342.416" filterUnits="userSpaceOnUse"><feOffset dx="27.851" dy="19.502" input="SourceAlpha"/><feGaussianBlur stdDeviation="38" result="b"/><feFlood flood-color="#565555" flood-opacity="0.588"/><feComposite operator="in" in2="b"/><feComposite in="SourceGraphic"/></filter><filter id="c" x="0" y="0" width="1996.32" height="606.758" filterUnits="userSpaceOnUse"><feOffset dx="29.489" dy="20.649" input="SourceAlpha"/><feGaussianBlur stdDeviation="43.5" result="d"/><feFlood flood-color="#565555" flood-opacity="0.502"/><feComposite operator="in" in2="d"/><feComposite in="SourceGraphic"/></filter><linearGradient id="e" x1="0.696" y1="1" x2="0.304" gradientUnits="objectBoundingBox"><stop offset="0" stop-color="#e1430e"/><stop offset="0.033" stop-color="#e1430e"/><stop offset="1" stop-color="#9d0707"/></linearGradient><filter id="f" x="72.42" y="120.958" width="1765.32" height="375.758" filterUnits="userSpaceOnUse"><feOffset dx="12.287" dy="8.604" input="SourceAlpha"/><feGaussianBlur stdDeviation="5" result="g"/><feFlood flood-opacity="0.439"/><feComposite operator="in" in2="g"/><feComposite in="SourceGraphic"/></filter><linearGradient id="h" x1="0.691" y1="1" x2="0.309" gradientUnits="objectBoundingBox"><stop offset="0" stop-color="#ab1313"/><stop offset="0.033" stop-color="#ab1313"/><stop offset="1" stop-color="#f87b0a"/></linearGradient><filter id="i" x="64.923" y="146.896" width="1761.222" height="367.59" filterUnits="userSpaceOnUse"><feOffset dx="12.287" dy="8.604" input="SourceAlpha"/><feGaussianBlur stdDeviation="5" result="j"/><feFlood flood-opacity="0.439"/><feComposite operator="in" in2="j"/><feComposite in="SourceGraphic"/></filter></defs><g transform="translate(385.551 -1582.231)"><g transform="matrix(1, 0, 0, 1, -385.55, 1582.23)" filter="url(#a)"><path d="M156,1900a2101.657,2101.657,0,0,0,424,65c237.205,11.815,473.929-16.793,703-84a1864.759,1864.759,0,0,1-357.25,92.124C786.407,1994.617,665.659,1999.769,556,1992a1511.8,1511.8,0,0,1-278-46Z" transform="translate(385.55 -1582.23)" fill="#c83a0f"/></g><g transform="matrix(1, 0, 0, 1, -385.55, 1582.23)" filter="url(#c)"><path d="M1450.772,1793.848c-.471-1.166-45.329,24.591-58.239,30.363-8.207,3.669-19.688,17.7-24.534,19.789-32.953,14.2-592.024,233.291-1069.62,102.249C87.054,1888.265-169.8,1721.935-182.2,1712.895c-9.448-6.89-18.607-13.735-27.842-20.812l-35.637,50.943-38.865,55.558c169.261,102.139,350.275,173.45,540.943,210.267C919.787,2136.948,1452.993,1799.348,1450.772,1793.848Z" transform="translate(385.55 -1582.23)" fill="#f87b0a"/></g><g transform="matrix(1, 0, 0, 1, -385.55, 1582.23)" filter="url(#f)"><path d="M1424.895,1811.351c-2.217-5.493-543.8,313.836-1152.393,152.4-183.074-48.563-352.2-134.859-508.419-254.165l-35.637,50.943-38.865,55.558c169.261,102.139,350.276,173.45,540.943,210.267C893.91,2154.451,1427.115,1816.852,1424.895,1811.351Z" transform="translate(385.55 -1582.23)" fill="url(#e)"/></g><g transform="matrix(1, 0, 0, 1, -385.55, 1582.23)" filter="url(#i)"><path d="M1413.306,1831.035c-.263-.62-43.742,20.672-84.438,34.061-461.706,151.892-911.353,163.491-1063.862,124.594C110.5,1950.283-43.27,1877.929-174.807,1786.48c-23.622-16.423-46.184-33.179-68.606-50.956l-35.637,50.943-38.865,55.558a1651.824,1651.824,0,0,0,210.537,108.359c117.5,50.193,244.96,85.121,330.406,101.908C755.493,2156.9,1414.331,1833.446,1413.306,1831.035Z" transform="translate(385.55 -1582.23)" fill="url(#h)"/></g></g></svg>