<svg xmlns="http://www.w3.org/2000/svg" xmlns:xlink="http://www.w3.org/1999/xlink" width="2237.956" height="1173.395" viewBox="0 0 2237.956 1173.395"><defs><filter id="a" x="331.837" y="250.483" width="1906.119" height="905.196" filterUnits="userSpaceOnUse"><feOffset dx="-30.294" dy="-15.436" input="SourceAlpha"/><feGaussianBlur stdDeviation="38" result="b"/><feFlood flood-opacity="0.922"/><feComposite operator="in" in2="b"/><feComposite in="SourceGraphic"/></filter><linearGradient id="c" x1="1" y1="0.466" x2="0" y2="0.534" gradientUnits="objectBoundingBox"><stop offset="0" stop-color="#a81800"/><stop offset="0.117" stop-color="#a81800"/><stop offset="0.378" stop-color="#c57512"/><stop offset="0.552" stop-color="#e2d224"/><stop offset="0.873" stop-color="#d02c0b"/><stop offset="1" stop-color="#d02c0b"/></linearGradient><filter id="d" x="204.102" y="42.691" width="1997.977" height="1130.703" filterUnits="userSpaceOnUse"><feOffset dx="-30.294" dy="-15.436" input="SourceAlpha"/><feGaussianBlur stdDeviation="38" result="e"/><feFlood flood-opacity="0.922"/><feComposite operator="in" in2="e"/><feComposite in="SourceGraphic"/></filter><filter id="f" x="430.983" y="336.038" width="1132.888" height="666.409" filterUnits="userSpaceOnUse"><feOffset dx="-13.365" dy="-6.81" input="SourceAlpha"/><feGaussianBlur stdDeviation="5" result="g"/><feFlood flood-color="#ad0c0c" flood-opacity="0.439"/><feComposite operator="in" in2="g"/><feComposite in="SourceGraphic"/></filter><filter id="h" x="0" y="0" width="1469.337" height="1087.146" filterUnits="userSpaceOnUse"><feOffset dx="-30.294" dy="-15.436" input="SourceAlpha"/><feGaussianBlur stdDeviation="38" result="i"/><feFlood flood-opacity="0.922"/><feComposite operator="in" in2="i"/><feComposite in="SourceGraphic"/></filter></defs><g transform="translate(677.828 -372.311)"><g transform="matrix(1, 0, 0, 1, -677.83, 372.31)" filter="url(#a)"><path d="M-201.631,752.265c-4.239,3.832,195.269,329.778,610.778,499.574,340.222,139.03,718.064,129.723,1067.274,1.9l-7.772,29.6-7.5,28.563c-189.995,86.53-382.4,127.7-576.377,115.386C231.436,1385.795-195.609,746.82-201.631,752.265Z" transform="translate(677.83 -372.31)" fill="#950303"/></g><g transform="matrix(1, 0, 0, 1, -677.83, 372.31)" filter="url(#d)"><path d="M-329.432,544.438c-.173.11,189.267,448.493,661.682,681.992,223.962,110.7,521.051,174.134,932.96,147.279,59.043-3.849,116.928-9.88,175.335-18.268a380.988,380.988,0,0,1-12.689,45c-2.722,7.786-5.634,15.327-8.854,22.924-370.355,53.867-709.361,17.95-1007.309-125.592C-113.55,1044.726-329.248,544.321-329.432,544.438Z" transform="translate(677.83 -372.31)" fill="url(#c)"/></g><g transform="matrix(1, 0, 0, 1, -677.83, 372.31)" filter="url(#f)"><path d="M-162.641,730.159S148.7,1303.99,884.408,1365.612c0,0-682.7,43.748-1102.888-460.632Z" transform="translate(677.83 -372.31)" fill="#950303"/></g><g transform="matrix(1, 0, 0, 1, -677.83, 372.31)" filter="url(#h)"><path d="M-486.466,501.747A1666.2,1666.2,0,0,0,12.8,1071.795a1666.181,1666.181,0,0,0,695,289.1c-127.243-10.5-251.226-36.395-370.839-77.944-366.372-127.265-663.972-392.23-870.5-734.547Z" transform="translate(677.83 -372.31)" fill="#df280a"/></g></g></svg>