<svg xmlns="http://www.w3.org/2000/svg" xmlns:xlink="http://www.w3.org/1999/xlink" width="1878.368" height="898.739" viewBox="0 0 1878.368 898.739"><defs><filter id="a" x="96.029" y="0" width="1782.339" height="898.739" filterUnits="userSpaceOnUse"><feOffset dx="-18.711" dy="-9.534" input="SourceAlpha"/><feGaussianBlur stdDeviation="19" result="b"/><feFlood flood-color="#fd3502" flood-opacity="0.639"/><feComposite operator="in" in2="b"/><feComposite in="SourceGraphic"/></filter><filter id="c" x="0" y="42.711" width="1824.024" height="817.309" filterUnits="userSpaceOnUse"><feOffset dx="-67.716" dy="-34.503" input="SourceAlpha"/><feGaussianBlur stdDeviation="19" result="d"/><feFlood flood-color="#2d2c2d" flood-opacity="0.639"/><feComposite operator="in" in2="d"/><feComposite in="SourceGraphic"/></filter></defs><g transform="translate(286.702 -1899.775)"><g transform="matrix(1, 0, 0, 1, -286.7, 1899.77)" filter="url(#a)"><path d="M1488.585,2685.733c-5.25-12.5-46.288-59.606-65.433-81.581-69.145-79.365-270.62-225.977-574.619-241.316-253.859-12.809-548.276,171.933-752.348,62.624-101.4-54.313-169.975-162.132-211.147-312.574L10.079,1966.308c4.433,132.223,40.017,228.821,108.437,289.646,213.688,189.964,647.71-81.127,998.2,60.584,183.5,74.194,326.911,226,436.662,434.51a60.048,60.048,0,0,1-22.6-5.747C1504.712,2732.719,1496.147,2703.739,1488.585,2685.733Z" transform="translate(286.7 -1899.77)" fill="#e02804"/></g><g transform="matrix(1, 0, 0, 1, -286.7, 1899.77)" filter="url(#c)"><path d="M1469.217,2675.446c-5.894-12.212-49.329-57.114-69.593-78.063-73.183-75.656-282.02-211.578-586.405-211.065-254.182.428-538.579,200.25-748.067,101.716-104.089-48.958-178.187-153.061-227.138-301.155l117.239-152.889C-33.434,2165.8,7.131,2260.416,78.626,2317.595c223.29,178.578,642.607-114.747,1000,8.522,187.114,64.538,338.235,208.665,458.7,411.181a60.053,60.053,0,0,1-22.873-4.563C1487.769,2721.529,1477.706,2693.033,1469.217,2675.446Z" transform="translate(286.7 -1899.77)" fill="#e88902"/></g></g></svg>