<svg xmlns="http://www.w3.org/2000/svg" xmlns:xlink="http://www.w3.org/1999/xlink" width="1926.785" height="828.385" viewBox="0 0 1926.785 828.385"><defs><filter id="a" x="85.585" y="16.058" width="1785.785" height="664.731" filterUnits="userSpaceOnUse"><feOffset dx="24.575" dy="17.207" input="SourceAlpha"/><feGaussianBlur stdDeviation="20" result="b"/><feFlood flood-opacity="0.439"/><feComposite operator="in" in2="b"/><feComposite in="SourceGraphic"/></filter><linearGradient id="c" x1="0.821" y1="1" x2="0.179" gradientUnits="objectBoundingBox"><stop offset="0" stop-color="#e1430e"/><stop offset="0.749" stop-color="#e1430e"/><stop offset="1" stop-color="#9d0707"/></linearGradient><filter id="d" x="65.585" y="40.059" width="1785.785" height="664.731" filterUnits="userSpaceOnUse"><feOffset dx="24.575" dy="17.207" input="SourceAlpha"/><feGaussianBlur stdDeviation="20" result="e"/><feFlood flood-opacity="0.439"/><feComposite operator="in" in2="e"/><feComposite in="SourceGraphic"/></filter><linearGradient id="f" x1="0.821" y1="1" x2="0.179" gradientUnits="objectBoundingBox"><stop offset="0" stop-color="#d30f0f"/><stop offset="0.033" stop-color="#d30f0f"/><stop offset="1" stop-color="#9d0707"/></linearGradient><filter id="g" x="0" y="0" width="1926.785" height="805.731" filterUnits="userSpaceOnUse"><feOffset dx="29.489" dy="20.649" input="SourceAlpha"/><feGaussianBlur stdDeviation="43.5" result="h"/><feFlood flood-color="#2a2828" flood-opacity="0.6"/><feComposite operator="in" in2="h"/><feComposite in="SourceGraphic"/></filter><filter id="i" x="61" y="84.424" width="1814" height="743.96" filterUnits="userSpaceOnUse"><feOffset dx="29.489" dy="20.649" input="SourceAlpha"/><feGaussianBlur stdDeviation="43.5" result="j"/><feFlood flood-color="#2a2828" flood-opacity="0.6"/><feComposite operator="in" in2="j"/><feComposite in="SourceGraphic"/></filter></defs><g transform="translate(294.011 -920.724)"><g transform="matrix(1, 0, 0, 1, -294.01, 920.72)" filter="url(#a)"><path d="M1492.761,979.611C1489.106,974.95,1057.488,1432.1,428,1446c-189.36,4.181-375.792-31.762-559-103l-20.09,58.835L-173,1466c190.966,51.125,384.663,69.37,578.056,51.8C1077.923,1456.656,1496.422,984.279,1492.761,979.611Z" transform="translate(294.01 -920.72)" fill="#c31309"/></g><g transform="matrix(1, 0, 0, 1, -294.01, 920.72)" filter="url(#d)"><path d="M1472.761,1003.611C1469.106,998.95,1037.488,1456.1,408,1470c-189.36,4.181-375.792-31.762-559-103l-20.09,58.836L-193,1490c190.966,51.125,384.663,69.37,578.056,51.8C1057.923,1480.656,1476.422,1008.279,1472.761,1003.611Z" transform="translate(294.01 -920.72)" fill="url(#c)"/></g><g transform="matrix(1, 0, 0, 1, -294.01, 920.72)" filter="url(#g)"><path d="M1472.761,1030.611c-.849-1.082-24.753,22.716-68.836,60.076-35.094,29.741-74.3,54.131-105.832,77.349C1221.9,1224.144,844.3,1488.3,408,1497c-189.944,3.786-378.549-31.51-559-103-5.631,16.49-11.261,28.98-16.892,45.47-1.066,3.122-2.132,10.244-3.2,13.365L-193,1517c190.966,51.125,384.663,69.37,578.056,51.8C1057.923,1507.656,1476.422,1035.279,1472.761,1030.611Z" transform="translate(294.01 -920.72)" fill="url(#f)"/></g><g transform="matrix(1, 0, 0, 1, -294.01, 920.72)" filter="url(#i)" style="mix-blend-mode:multiply;isolation:isolate"><path d="M-132,1536s749.44,279.276,1553-348l-28-73a1827.8,1827.8,0,0,1-256,194c-152.143,95.425-309.615,164.219-468,208-70.131,19.386-137.59,33.683-203,43-138.389,19.711-293.058,21.038-478-4C-52.389,1550.532-91.831,1543.957-132,1536Z" transform="translate(294.01 -920.72)" fill="#a10707"/></g></g></svg>