<svg xmlns="http://www.w3.org/2000/svg" xmlns:xlink="http://www.w3.org/1999/xlink" width="1602.349" height="579.333" viewBox="0 0 1602.349 579.333"><defs><filter id="a" x="10.492" y="0" width="1574.815" height="546.976" filterUnits="userSpaceOnUse"><feOffset dx="-18.711" dy="-9.534" input="SourceAlpha"/><feGaussianBlur stdDeviation="19" result="b"/><feFlood flood-color="#fd3502" flood-opacity="0.639"/><feComposite operator="in" in2="b"/><feComposite in="SourceGraphic"/></filter><linearGradient id="c" x1="0.534" x2="0.466" y2="1" gradientUnits="objectBoundingBox"><stop offset="0" stop-color="#dc3104"/><stop offset="0.265" stop-color="#ee9802"/><stop offset="0.5" stop-color="#ff0"/><stop offset="0.999" stop-color="#d83603"/><stop offset="1" stop-color="#d83603"/></linearGradient><filter id="d" x="0" y="76.043" width="1574.087" height="483.164" filterUnits="userSpaceOnUse"><feOffset dx="-18.711" dy="-9.534" input="SourceAlpha"/><feGaussianBlur stdDeviation="19" result="e"/><feFlood flood-color="#fd3502" flood-opacity="0.639"/><feComposite operator="in" in2="e"/><feComposite in="SourceGraphic"/></filter><filter id="f" x="622.429" y="89.824" width="979.92" height="489.509" filterUnits="userSpaceOnUse"><feOffset dx="-30.294" dy="-15.436" input="SourceAlpha"/><feGaussianBlur stdDeviation="38" result="g"/><feFlood flood-color="#53504f" flood-opacity="0.639"/><feComposite operator="in" in2="g"/><feComposite in="SourceGraphic"/></filter></defs><g transform="translate(138.515 -1234.075)" style="mix-blend-mode:multiply;isolation:isolate"><g transform="matrix(1, 0, 0, 1, -138.51, 1234.07)" filter="url(#a)"><path d="M-52.311,1423.114c286.1,9.625,521.844,67.432,707.9,176.894,81.239,47.8,199.033,141.335,349.864,133.062,68.809-3.774,154.211-28.969,223.432-80.316,14.531-10.779,29.168-24.676,39.547-33.237,40.864-33.7,87.627-62.6,140.072-87.183l-143.2,94.985s-121.366,74-292.772,52.135c-122.525-15.626-196.7-80.971-335.97-168.966-88.118-55.677-184.59-108-243.024-130.918-121.873-47.8-250.023-72.92-381.982-78.962Z" transform="translate(138.51 -1234.07)" fill="#f87b0a"/></g><g transform="matrix(1, 0, 0, 1, -138.51, 1234.07)" filter="url(#d)"><path d="M-62.8,1503.883c284.967-9.549,523.979,32.516,718,129.628,84.716,42.4,209.592,128.151,358.7,109.754,68.023-8.393,150.721-39.343,215.143-95.392,13.523-11.766,26.89-26.66,36.477-35.927,37.745-36.484,81.754-68.553,131.771-96.677l-134.223,104.7s-114.3,82.219-286.387,71.828c-123.009-7.427-202.191-67.874-347.927-146.631-92.212-49.832-192.438-95.745-252.407-114.773-125.074-39.685-254.469-56.238-386.04-53.437Z" transform="translate(138.51 -1234.07)" fill="url(#c)"/></g><g transform="matrix(1, 0, 0, 1, -138.51, 1234.07)" filter="url(#f)"><path d="M1182.969,1516.884s-284.393,193.492-554.761-13.892c0,0,297.936,287.348,708.921,192.736l43-181S1352.759,1375.166,1182.969,1516.884Z" transform="translate(138.51 -1234.07)" fill="#820707"/></g></g></svg>