<svg xmlns="http://www.w3.org/2000/svg" xmlns:xlink="http://www.w3.org/1999/xlink" width="1711.005" height="669.063" viewBox="0 0 1711.005 669.063"><defs><linearGradient id="a" x1="0.261" x2="0.739" y2="1" gradientUnits="objectBoundingBox"><stop offset="0" stop-color="#ec4e05"/><stop offset="0.001" stop-color="#ec4e05"/><stop offset="1" stop-color="#730504"/></linearGradient><filter id="b" x="143" y="0" width="1563" height="608.169" filterUnits="userSpaceOnUse"><feOffset dx="-31.185" dy="-15.89" input="SourceAlpha"/><feGaussianBlur stdDeviation="25.5" result="c"/><feFlood flood-color="#373434" flood-opacity="0.749"/><feComposite operator="in" in2="c"/><feComposite in="SourceGraphic"/></filter><linearGradient id="d" y1="0.976" x2="1" y2="0.024" gradientUnits="objectBoundingBox"><stop offset="0" stop-color="#ec4e05"/><stop offset="0.001" stop-color="#ec4e05"/><stop offset="1" stop-color="#a70908"/></linearGradient><filter id="e" x="91.391" y="103.957" width="1618" height="565.106" filterUnits="userSpaceOnUse"><feOffset dx="-30.294" dy="-15.436" input="SourceAlpha"/><feGaussianBlur stdDeviation="38" result="f"/><feFlood flood-opacity="0.922"/><feComposite operator="in" in2="f"/><feComposite in="SourceGraphic"/></filter><filter id="g" x="0" y="16.003" width="1135" height="548.992" filterUnits="userSpaceOnUse"><feOffset dx="-31.185" dy="-15.89" input="SourceAlpha"/><feGaussianBlur stdDeviation="25.5" result="h"/><feFlood flood-color="#373434" flood-opacity="0.749"/><feComposite operator="in" in2="h"/><feComposite in="SourceGraphic"/></filter><filter id="i" x="80.42" y="9.668" width="1630.585" height="562.498" filterUnits="userSpaceOnUse"><feOffset dx="-31.185" dy="-15.89" input="SourceAlpha"/><feGaussianBlur stdDeviation="25.5" result="j"/><feFlood flood-color="#373434" flood-opacity="0.749"/><feComposite operator="in" in2="j"/><feComposite in="SourceGraphic"/></filter></defs><g transform="translate(262.685 -90.607)"><g transform="matrix(1, 0, 0, 1, -262.69, 90.61)" filter="url(#b)"><path d="M-12,337c245.853,112.363,526.808,192.43,780,182,68.274-2.812,160.963-18.034,258-47,191.1-57.045,291.544-147.654,314-208,11.271-30.288,14.027-80.662,22-81,13.019-.551,27.224,90.661,36,154a778.5,778.5,0,0,1-102.275,101.837C967.806,709.389,456.843,674.052-6.859,513.47q-1.192-40.919-2.384-81.839Q-10.621,384.315-12,337Z" transform="translate(262.69 -90.61)" fill="url(#a)"/></g><g transform="matrix(1, 0, 0, 1, -262.69, 90.61)" filter="url(#e)"><path d="M-27,324C308.876,524.239,696.335,609.34,1062,507c105.759-29.6,206.312-73.93,301-131.984-17.778,58.5-46.231,111.1-87,154.984-84.489,90.953-227.525,139.17-487,130-262.988-9.294-548.133-71.572-810-156Z" transform="translate(262.69 -90.61)" fill="url(#d)"/></g><g transform="matrix(1, 0, 0, 1, -262.69, 90.61)" filter="url(#g)"><path d="M-108,199A1765.921,1765.921,0,0,0,214.5,416.636C320.352,472.105,416.156,510.768,508,537a1426.155,1426.155,0,0,0,319,53,1192.792,1192.792,0,0,1-266.5-5.425C293.043,548.826,47.94,422.42-155,231Z" transform="translate(262.69 -90.61)" fill="#b14116"/></g><g transform="matrix(1, 0, 0, 1, -262.69, 90.61)" filter="url(#i)"><path d="M-74.58,227.322C91.162,370.478,281.078,476.717,489,538c466.342,137.45,915.734,16.541,914-18-.259-5.158-10.615-9.15-23.808-12.3-29.362,7.89-58.322,14.884-88.192,21.3-127.245,27.336-248.828,40.7-363,40-223.281-1.367-413.986-45.132-570.5-115.713C222.845,392.561,21.592,274.143-27,213c-3.508-4.415-17.765-23.046-30-20C-66.15,195.277-71.507,209.038-74.58,227.322Z" transform="translate(262.69 -90.61)" fill="#f89d08"/></g></g></svg>