<svg xmlns="http://www.w3.org/2000/svg" xmlns:xlink="http://www.w3.org/1999/xlink" width="1847.918" height="1150.143" viewBox="0 0 1847.918 1150.143"><defs><filter id="a" x="46.605" y="0" width="679.183" height="1008.854" filterUnits="userSpaceOnUse"><feOffset dx="-31.185" dy="-15.89" input="SourceAlpha"/><feGaussianBlur stdDeviation="25.5" result="b"/><feFlood flood-color="#373434" flood-opacity="0.459"/><feComposite operator="in" in2="b"/><feComposite in="SourceGraphic"/></filter><linearGradient id="c" y1="0.591" x2="1" y2="0.409" gradientUnits="objectBoundingBox"><stop offset="0" stop-color="#ec4e05"/><stop offset="0.001" stop-color="#ec4e05"/><stop offset="1" stop-color="#a70908"/></linearGradient><filter id="d" x="0" y="102.232" width="776.356" height="944.665" filterUnits="userSpaceOnUse"><feOffset dx="-31.185" dy="-15.89" input="SourceAlpha"/><feGaussianBlur stdDeviation="25.5" result="e"/><feFlood flood-color="#373434" flood-opacity="0.459"/><feComposite operator="in" in2="e"/><feComposite in="SourceGraphic"/></filter><linearGradient id="f" y1="0.729" x2="1" y2="0.271" gradientUnits="objectBoundingBox"><stop offset="0" stop-color="#760a0a"/><stop offset="1" stop-color="#e8420a"/></linearGradient><filter id="g" x="393.679" y="319.853" width="1417.626" height="790.55" filterUnits="userSpaceOnUse"><feOffset dx="-31.185" dy="-15.89" input="SourceAlpha"/><feGaussianBlur stdDeviation="25.5" result="h"/><feFlood flood-color="#373434" flood-opacity="0.749"/><feComposite operator="in" in2="h"/><feComposite in="SourceGraphic"/></filter><linearGradient id="i" y1="0.772" x2="1" y2="0.228" gradientUnits="objectBoundingBox"><stop offset="0" stop-color="#760a0a"/><stop offset="1" stop-color="#a70908"/></linearGradient><filter id="j" x="387.992" y="441.764" width="1459.926" height="708.379" filterUnits="userSpaceOnUse"><feOffset dx="-31.185" dy="-15.89" input="SourceAlpha"/><feGaussianBlur stdDeviation="25.5" result="k"/><feFlood flood-color="#373434" flood-opacity="0.749"/><feComposite operator="in" in2="k"/><feComposite in="SourceGraphic"/></filter></defs><g transform="translate(315.216 -2910.256)"><g transform="matrix(1, 0, 0, 1, -315.22, 2910.26)" filter="url(#a)"><path d="M2.637,3002.645s-84.868,538.4,362.621,855.854c0,0-371.006-169.211-526.184-585.483Z" transform="translate(315.22 -2910.26)" fill="#f89d08"/></g><g transform="matrix(1, 0, 0, 1, -315.22, 2910.26)" filter="url(#d)"><path d="M-99.836,3104.877s19.87,552.472,515.662,791.665c0,0-393.169-104.445-623.356-493.184Z" transform="translate(315.22 -2910.26)" fill="url(#c)"/></g><g transform="matrix(1, 0, 0, 1, -315.22, 2910.26)" filter="url(#g)"><path d="M1450.775,3322.5c-109.345,180.633-255.559,329.945-431.313,433.192-153.091,89.934-308.958,127.265-384.495,131.174-158.906,8.223-313.941-37.357-448.817-126.042,98.7,83.044,211.993,142.718,335.8,173.95,315.673,79.638,648.424-36.041,891.13-247.05q5.066-49.079,10.132-98.157Q1436.991,3456.033,1450.775,3322.5Z" transform="translate(315.22 -2910.26)" fill="url(#f)"/></g><g transform="matrix(1, 0, 0, 1, -315.22, 2910.26)" filter="url(#j)"><path d="M1487.388,3444.409c-129.556,166.733-292.1,298.08-478.642,380.248-162.488,71.572-321.632,90.576-397.113,85.7-158.787-10.261-307.49-73.514-431.171-177.242,88.4,93.93,194.011,166.34,313.358,211.72,304.307,115.71,648.228,39.4,913.768-142.035l21.447-96.32Z" transform="translate(315.22 -2910.26)" fill="url(#i)"/></g></g></svg>