<svg xmlns="http://www.w3.org/2000/svg" xmlns:xlink="http://www.w3.org/1999/xlink" width="2044.425" height="971.153" viewBox="0 0 2044.425 971.153"><defs><filter id="a" x="800.425" y="0" width="1244" height="971.153" filterUnits="userSpaceOnUse"><feOffset dx="-30.294" dy="-15.436" input="SourceAlpha"/><feGaussianBlur stdDeviation="38" result="b"/><feFlood flood-opacity="0.922"/><feComposite operator="in" in2="b"/><feComposite in="SourceGraphic"/></filter><linearGradient id="c" y1="0.817" x2="1" y2="0.183" gradientUnits="objectBoundingBox"><stop offset="0" stop-color="#f8720b"/><stop offset="1" stop-color="#d82204"/></linearGradient><filter id="d" x="0" y="29.599" width="1675.747" height="708.098" filterUnits="userSpaceOnUse"><feOffset dx="-31.185" dy="-15.89" input="SourceAlpha"/><feGaussianBlur stdDeviation="25.5" result="e"/><feFlood flood-color="#373434" flood-opacity="0.749"/><feComposite operator="in" in2="e"/><feComposite in="SourceGraphic"/></filter><linearGradient id="f" y1="0.643" x2="1" y2="0.357" gradientUnits="objectBoundingBox"><stop offset="0" stop-color="#f89d08"/><stop offset="0.63" stop-color="#e86006"/><stop offset="1" stop-color="#d82204"/></linearGradient><filter id="g" x="1023.034" y="68.199" width="902" height="758" filterUnits="userSpaceOnUse"><feOffset dx="-31.185" dy="-15.89" input="SourceAlpha"/><feGaussianBlur stdDeviation="25.5" result="h"/><feFlood flood-color="#373434" flood-opacity="0.749"/><feComposite operator="in" in2="h"/><feComposite in="SourceGraphic"/></filter></defs><g transform="translate(569.719 -2333.411)"><g transform="matrix(1, 0, 0, 1, -569.72, 2333.41)" filter="url(#a)"><path d="M1355,3206c-107.979-152.316-223.61-296.2-341-420-89.018-93.876-170.926-165.36-284.635-224.058C539.883,2464.128,375.163,2461.9,375,2463c-.239,1.6,353.361,3.319,687,234,128.2,88.637,237.29,199.6,329,330l-11.465,57.007-2.8,13.945Z" transform="translate(569.72 -2333.41)" fill="#d33506"/></g><g transform="matrix(1, 0, 0, 1, -569.72, 2333.41)" filter="url(#d)"><path d="M-462.034,3010.5C-391.856,2872.961-288.918,2759.145-159,2682c58.035-34.461,166.242-77.382,288-101,177.809-34.49,331.862-26.361,462.289,4.945,175.686,42.169,336.743,130.009,469.424,253.935-89.28-117.63-200.754-212.841-331.134-278.94C397.14,2392.4-3.615,2437.682-327.852,2612.129l-36.062,107.065Z" transform="translate(569.72 -2333.41)" fill="url(#c)"/></g><g transform="matrix(1, 0, 0, 1, -569.72, 2333.41)" filter="url(#g)"><path d="M561,2494c116.676,24.911,226.143,69.409,325,134,97.3,63.571,157.992,128.666,231,214,67.426,78.809,130.685,155.777,193,235l-41,22c-88.922-115.457-187.252-236.86-269-329-38.013-42.845-75.5-81.069-127-121C779.985,2576.876,674.75,2525.689,561,2494Z" transform="translate(569.72 -2333.41)" fill="url(#f)"/></g></g></svg>