<svg xmlns="http://www.w3.org/2000/svg" xmlns:xlink="http://www.w3.org/1999/xlink" width="2009.289" height="1185.717" viewBox="0 0 2009.289 1185.717"><defs><filter id="a" x="0" y="0" width="1894.165" height="974.752" filterUnits="userSpaceOnUse"><feOffset dx="27.851" dy="19.502" input="SourceAlpha"/><feGaussianBlur stdDeviation="38" result="b"/><feFlood flood-opacity="0.702"/><feComposite operator="in" in2="b"/><feComposite in="SourceGraphic"/></filter><filter id="c" x="83.436" y="106.102" width="1696.165" height="776.753" filterUnits="userSpaceOnUse"><feOffset dx="12.287" dy="8.604" input="SourceAlpha"/><feGaussianBlur stdDeviation="5" result="d"/><feFlood flood-opacity="0.439"/><feComposite operator="in" in2="d"/><feComposite in="SourceGraphic"/></filter><linearGradient id="e" x1="0.915" x2="0.085" y2="1" gradientUnits="objectBoundingBox"><stop offset="0" stop-color="#ec4e05"/><stop offset="0.001" stop-color="#ec4e05"/><stop offset="0.451" stop-color="#f19d29"/><stop offset="1" stop-color="#f6eb4d"/></linearGradient><filter id="f" x="13.289" y="15.717" width="1996" height="1109" filterUnits="userSpaceOnUse"><feOffset dx="27.851" dy="19.502" input="SourceAlpha"/><feGaussianBlur stdDeviation="38" result="g"/><feFlood flood-opacity="0.702"/><feComposite operator="in" in2="g"/><feComposite in="SourceGraphic"/></filter><filter id="h" x="1040.28" y="276.664" width="814.009" height="909.053" filterUnits="userSpaceOnUse"><feOffset dx="27.851" dy="19.502" input="SourceAlpha"/><feGaussianBlur stdDeviation="38" result="i"/><feFlood flood-opacity="0.702"/><feComposite operator="in" in2="i"/><feComposite in="SourceGraphic"/></filter></defs><g transform="translate(364.438 -5115.785)"><g transform="matrix(1, 0, 0, 1, -364.44, 5115.78)" filter="url(#a)"><path d="M-278.289,5213.735c296.888-16.552,585.026,26.2,853.983,133.137,532.882,211.867,815.856,606.47,812.145,610.138-3.443,3.4-258.609-332.228-736.394-542.731C371.066,5290.748,69.928,5233.128-247.3,5232.54Z" transform="translate(364.44 -5115.78)" fill="#f87b0a"/></g><g transform="matrix(1, 0, 0, 1, -364.44, 5115.78)" filter="url(#c)"><path d="M-278.289,5231.735c296.888-16.552,585.026,26.2,853.983,133.137,532.882,211.867,815.856,606.47,812.145,610.139-3.443,3.4-258.609-332.228-736.394-542.731C371.066,5308.748,69.928,5251.128-247.3,5250.54Z" transform="translate(364.44 -5115.78)" fill="#f6eb4d"/></g><g transform="matrix(1, 0, 0, 1, -364.44, 5115.78)" filter="url(#f)"><path d="M-265,5300s1132.25-51.226,1768,807c0,0-515.75-828.62-1764-881Z" transform="translate(364.44 -5115.78)" fill="url(#e)"/></g><g transform="matrix(1, 0, 0, 1, -364.44, 5115.78)" filter="url(#h)"><path d="M1316,6168c-61.038-194.479-158.731-364.225-301-499-122.667-116.206-254.285-179.778-253-182,.93-1.608,65.9,33.6,101,54,183.3,106.521,338.923,216.466,416,317l69,90-11.859,81.533-2.815,19.355C1328.02,6085.365,1321.776,6128.3,1316,6168Z" transform="translate(364.44 -5115.78)" fill="#e74905"/></g></g></svg>