<svg xmlns="http://www.w3.org/2000/svg" xmlns:xlink="http://www.w3.org/1999/xlink" width="1796.844" height="1303.022" viewBox="0 0 1796.844 1303.022"><defs><linearGradient id="a" x1="1" y1="0.036" x2="0" y2="0.964" gradientUnits="objectBoundingBox"><stop offset="0" stop-color="#831e06"/><stop offset="0" stop-color="#e88902"/><stop offset="0" stop-color="#dabb29"/><stop offset="0" stop-color="#ead20b"/><stop offset="0.579" stop-color="#e88902"/><stop offset="0.981" stop-color="#ffd304"/><stop offset="1" stop-color="#ffd304"/></linearGradient><filter id="b" x="79.844" y="18.947" width="1717.001" height="1264.281" filterUnits="userSpaceOnUse"><feOffset dx="-67.716" dy="-34.503" input="SourceAlpha"/><feGaussianBlur stdDeviation="17" result="c"/><feFlood flood-color="#1e1c1c" flood-opacity="0.749"/><feComposite operator="in" in2="c"/><feComposite in="SourceGraphic"/></filter><linearGradient id="d" x1="1" y1="0.245" x2="0" y2="0.755" gradientUnits="objectBoundingBox"><stop offset="0" stop-color="#831e06"/><stop offset="0" stop-color="#dabb29"/><stop offset="0" stop-color="#cf0a05"/><stop offset="0" stop-color="#831e06"/><stop offset="0" stop-color="#980808"/><stop offset="0.41" stop-color="#c52815"/><stop offset="1" stop-color="#f24821"/></linearGradient><filter id="e" x="100.604" y="0" width="1567.117" height="1303.022" filterUnits="userSpaceOnUse"><feOffset dx="-67.716" dy="-34.503" input="SourceAlpha"/><feGaussianBlur stdDeviation="16" result="f"/><feFlood flood-color="#373434" flood-opacity="0.749"/><feComposite operator="in" in2="f"/><feComposite in="SourceGraphic"/></filter><linearGradient id="g" x1="0.474" x2="0.526" y2="1" gradientUnits="objectBoundingBox"><stop offset="0" stop-color="#831e06"/><stop offset="0" stop-color="#dabb29"/><stop offset="0" stop-color="#cf0a05"/><stop offset="0" stop-color="#831e06"/><stop offset="0" stop-color="#d53813"/><stop offset="1" stop-color="#ed9710"/></linearGradient><filter id="h" x="0" y="26.089" width="1664.606" height="1269.689" filterUnits="userSpaceOnUse"><feOffset dx="-15.147" dy="-7.718" input="SourceAlpha"/><feGaussianBlur stdDeviation="16" result="i"/><feFlood flood-color="#626262" flood-opacity="0.749"/><feComposite operator="in" in2="i"/><feComposite in="SourceGraphic"/></filter></defs><g transform="translate(271.26 -3539.694)"><g transform="matrix(1, 0, 0, 1, -271.26, 3539.69)" filter="url(#b)"><path d="M1525.585,3773.191S490.119,4055.97-72.7,4806.425c0,0,438.825-685.424,1486.917-1162.281Z" transform="translate(271.26 -3539.69)" fill="url(#a)"/></g><g transform="matrix(1, 0, 0, 1, -271.26, 3539.69)" filter="url(#e)"><path d="M-54.939,4829.219c48.406-131.546,118.02-259.112,208.087-380.355,75.477-101.6,171.244-204.4,297.425-313.695,238.752-206.8,532.762-379.015,856.462-512.972l89.427,97.771c-205.126,72.762-399.042,163.826-579.113,272.436C449.082,4214.527,152.974,4501.807-54.939,4829.219Z" transform="translate(271.26 -3539.69)" fill="url(#d)"/></g><g transform="matrix(1, 0, 0, 1, -271.26, 3539.69)" filter="url(#h)"><path d="M-64.533,4794.041C102.257,4824,344.292,4260.523,644.1,4001.4c207.123-179.011,449.179-302.684,716.39-379.9-430.2,84.882-826.793,267.534-1159.01,542.479a2512.513,2512.513,0,0,0-409.6,430.529C-172.222,4710.121-125.762,4783.043-64.533,4794.041Z" transform="translate(271.26 -3539.69)" fill="url(#g)"/></g></g></svg>