<svg xmlns="http://www.w3.org/2000/svg" xmlns:xlink="http://www.w3.org/1999/xlink" width="2616.297" height="1266.276" viewBox="0 0 2616.297 1266.276"><defs><filter id="a" x="0" y="28.683" width="2616.297" height="1237.592" filterUnits="userSpaceOnUse"><feOffset dx="-31.185" dy="-15.89" input="SourceAlpha"/><feGaussianBlur stdDeviation="25.5" result="b"/><feFlood flood-color="#373434" flood-opacity="0.459"/><feComposite operator="in" in2="b"/><feComposite in="SourceGraphic"/></filter><filter id="c" x="811.774" y="0" width="1479.02" height="667.058" filterUnits="userSpaceOnUse"><feOffset dx="-31.185" dy="-15.89" input="SourceAlpha"/><feGaussianBlur stdDeviation="25.5" result="d"/><feFlood flood-color="#6d6464" flood-opacity="0.749"/><feComposite operator="in" in2="d"/><feComposite in="SourceGraphic"/></filter></defs><g transform="translate(587.479 -69.61)"><g transform="matrix(1, 0, 0, 1, -587.48, 69.61)" filter="url(#a)"><path d="M-479.793,1211.339C-231.391,918.79,69.939,679.67,410.466,507.3,895.353,261.867,1439.07,162.411,1983.5,211.661c-334.653-46.385-671.855-16-988.4,92.685C499.773,474.426,91.631,823.528-174.354,1275.275Z" transform="translate(587.48 -69.61)" fill="#d23506"/></g><g transform="matrix(1, 0, 0, 1, -587.48, 69.61)" filter="url(#c)"><path d="M332,676c3.491,4.769,300.727-287.313,742-322,195.6-15.375,390.545,21.094,584,102l-23.514-144.023-5.88-36.012L1610,162a2058.786,2058.786,0,0,0-458,76,2115.61,2115.61,0,0,0-202,69C573.279,456.627,329.466,672.538,332,676Z" transform="translate(587.48 -69.61)" fill="#d03512"/></g></g></svg>