<svg xmlns="http://www.w3.org/2000/svg" xmlns:xlink="http://www.w3.org/1999/xlink" width="1711.005" height="608.169" viewBox="0 0 1711.005 608.169"><defs><linearGradient id="a" x1="0.261" x2="0.739" y2="1" gradientUnits="objectBoundingBox"><stop offset="0" stop-color="#ec4e05"/><stop offset="0.001" stop-color="#ec4e05"/><stop offset="1" stop-color="#730504"/></linearGradient><filter id="b" x="143" y="0" width="1563" height="608.169" filterUnits="userSpaceOnUse"><feOffset dx="28.67" dy="20.075" input="SourceAlpha"/><feGaussianBlur stdDeviation="25.5" result="c"/><feFlood flood-color="#373434" flood-opacity="0.749"/><feComposite operator="in" in2="c"/><feComposite in="SourceGraphic"/></filter><linearGradient id="d" y1="0.976" x2="1" y2="0.024" gradientUnits="objectBoundingBox"><stop offset="0" stop-color="#ec4e05"/><stop offset="0.001" stop-color="#ec4e05"/><stop offset="1" stop-color="#a70908"/></linearGradient><filter id="e" x="0" y="16.002" width="1135" height="548.992" filterUnits="userSpaceOnUse"><feOffset dx="28.67" dy="20.075" input="SourceAlpha"/><feGaussianBlur stdDeviation="25.5" result="f"/><feFlood flood-color="#373434" flood-opacity="0.749"/><feComposite operator="in" in2="f"/><feComposite in="SourceGraphic"/></filter><filter id="g" x="80.42" y="9.667" width="1630.585" height="562.498" filterUnits="userSpaceOnUse"><feOffset dx="28.67" dy="20.075" input="SourceAlpha"/><feGaussianBlur stdDeviation="25.5" result="h"/><feFlood flood-color="#373434" flood-opacity="0.749"/><feComposite operator="in" in2="h"/><feComposite in="SourceGraphic"/></filter></defs><g transform="translate(202.83 -2549.573)"><g transform="matrix(1, 0, 0, 1, -202.83, 2549.57)" filter="url(#b)"><path d="M-12,2760c245.853,112.364,526.808,192.429,780,182,68.274-2.812,160.963-18.035,258-47,191.1-57.045,291.544-147.653,314-208,11.271-30.287,14.027-80.662,22-81,13.02-.551,27.224,90.661,36,154a778.486,778.486,0,0,1-102.275,101.838C967.806,3132.389,456.843,3097.052-6.859,2936.47q-1.192-40.919-2.384-81.839Q-10.621,2807.315-12,2760Z" transform="translate(202.83 -2549.57)" fill="url(#a)"/></g><path d="M-27,2747c335.876,200.239,723.335,285.34,1089,183,105.759-29.6,206.312-73.93,301-131.984-17.777,58.5-46.231,111.1-87,154.985-84.489,90.953-227.525,139.17-487,130-262.988-9.295-548.133-71.572-810-156Z" fill="url(#d)"/><g transform="matrix(1, 0, 0, 1, -202.83, 2549.57)" filter="url(#e)"><path d="M-108,2622a1765.922,1765.922,0,0,0,322.5,217.637C320.352,2895.106,416.156,2933.769,508,2960a1426.157,1426.157,0,0,0,319,53,1192.806,1192.806,0,0,1-266.5-5.425C293.043,2971.827,47.94,2845.42-155,2654Z" transform="translate(202.83 -2549.57)" fill="#b14116"/></g><g transform="matrix(1, 0, 0, 1, -202.83, 2549.57)" filter="url(#g)"><path d="M-74.58,2650.322C91.162,2793.478,281.078,2899.717,489,2961c466.342,137.449,915.734,16.541,914-18-.259-5.158-10.615-9.15-23.808-12.3-29.362,7.89-58.322,14.884-88.192,21.3-127.245,27.335-248.828,40.7-363,40-223.281-1.367-413.986-45.132-570.5-115.713C222.845,2815.562,21.592,2697.143-27,2636c-3.508-4.414-17.765-23.046-30-20C-66.15,2618.278-71.507,2632.038-74.58,2650.322Z" transform="translate(202.83 -2549.57)" fill="#f89d08"/></g></g></svg>