<svg xmlns="http://www.w3.org/2000/svg" xmlns:xlink="http://www.w3.org/1999/xlink" width="1688.382" height="698.067" viewBox="0 0 1688.382 698.067"><defs><linearGradient id="a" x1="0.871" y1="1" x2="0.129" gradientUnits="objectBoundingBox"><stop offset="0" stop-color="#e1430e"/><stop offset="0.033" stop-color="#e1430e"/><stop offset="1" stop-color="#9d0707"/></linearGradient><filter id="b" x="0" y="24.85" width="1664.782" height="647.924" filterUnits="userSpaceOnUse"><feOffset dx="-13.365" dy="-6.81" input="SourceAlpha"/><feGaussianBlur stdDeviation="5" result="c"/><feFlood flood-opacity="0.439"/><feComposite operator="in" in2="c"/><feComposite in="SourceGraphic"/></filter><filter id="d" x="1.566" y="0" width="1686.817" height="698.067" filterUnits="userSpaceOnUse"><feOffset dx="-13.365" dy="-6.81" input="SourceAlpha"/><feGaussianBlur stdDeviation="5" result="e"/><feFlood flood-opacity="0.439"/><feComposite operator="in" in2="e"/><feComposite in="SourceGraphic"/></filter></defs><g transform="translate(343.723 -707.166)"><path d="M1337.97,728.738c-3.92-4.441-408.3,476.969-1035.924,527.348-96.384,7.737-271.865,4.108-442.868-36.263-41.143-9.713-81.279-21.025-121.164-34.148l-16.645,59.9-18.152,65.328c193.609,39.965,388.039,46.947,580.087,18.189C951.493,1229.036,1341.895,733.185,1337.97,728.738Z" fill="#fdbe03"/><g transform="matrix(1, 0, 0, 1, -343.72, 707.17)" filter="url(#b)"><path d="M1319.4,753.857c-3.919-4.441-408.3,476.969-1035.924,527.348-188.8,15.154-377-9.917-564.032-70.411l-16.645,59.9-18.152,65.327c193.609,39.965,388.038,46.947,580.087,18.189C932.919,1254.155,1323.32,758.3,1319.4,753.857Z" transform="translate(343.72 -707.17)" fill="url(#a)"/></g><g transform="matrix(1, 0, 0, 1, -343.72, 707.17)" filter="url(#d)"><path d="M1343,729c-3.995-4.174-505.3,542.884-1057.963,579.16-90.531,5.942-284.042,3.814-464.914-41.722-33.666-8.476-66.32-17.926-99.118-28.689l-16.645,59.9-18.152,65.328c23.148,4.85,45.9,9.1,69.377,12.975,193.1,31.841,389.2,22.582,510.71,5.214C867.478,1295.232,1346.985,733.165,1343,729Z" transform="translate(343.72 -707.17)" fill="#f87b0a"/></g></g></svg>