<svg xmlns="http://www.w3.org/2000/svg" xmlns:xlink="http://www.w3.org/1999/xlink" width="2104.392" height="795.122" viewBox="0 0 2104.392 795.122"><defs><linearGradient id="a" y1="0.837" x2="1" y2="0.163" gradientUnits="objectBoundingBox"><stop offset="0" stop-color="#ec4e05"/><stop offset="0.001" stop-color="#ec4e05"/><stop offset="1" stop-color="#f89d08"/></linearGradient><filter id="b" x="0" y="0" width="1897.044" height="751.031" filterUnits="userSpaceOnUse"><feOffset dx="28.67" dy="20.075" input="SourceAlpha"/><feGaussianBlur stdDeviation="25.5" result="c"/><feFlood flood-color="#373434" flood-opacity="0.749"/><feComposite operator="in" in2="c"/><feComposite in="SourceGraphic"/></filter><filter id="d" x="632.254" y="407.593" width="1472.138" height="387.53" filterUnits="userSpaceOnUse"><feOffset dx="28.67" dy="20.075" input="SourceAlpha"/><feGaussianBlur stdDeviation="25.5" result="e"/><feFlood flood-color="#373434" flood-opacity="0.749"/><feComposite operator="in" in2="e"/><feComposite in="SourceGraphic"/></filter></defs><g transform="translate(424.825 -2851.233)"><g transform="matrix(1, 0, 0, 1, -424.82, 2851.23)" filter="url(#b)"><path d="M-284.282,2907.658s591.6,741.958,1651.331,473.406c0,0-893.845,455.37-1744.044-374.794Z" transform="translate(424.82 -2851.23)" fill="url(#a)"/></g><g transform="matrix(1, 0, 0, 1, -424.82, 2851.23)" filter="url(#d)"><path d="M255.259,3414.111c300.917,123.151,621.412,165.456,935.56,114.574a1653.584,1653.584,0,0,0,383.578-111.2,353.249,353.249,0,0,0-17.536-102.237,2002.311,2002.311,0,0,1-351.169,126.9c-278.6,71.954-517.214,73.006-679.82,45.673A1413.354,1413.354,0,0,1,255.259,3414.111Z" transform="translate(424.82 -2851.23)" fill="#db3d06"/></g></g></svg>